<svg width="401" height="322" viewBox="0 0 401 322" fill="none" xmlns="http://www.w3.org/2000/svg">
<g clip-path="url(#clip0_19_6)">
<path d="M389.07 169.66C390.44 169.53 398.51 169.18 399.75 167.9C402 165.58 399.32 148.69 398.46 147.97C397.6 147.25 395.88 146.97 395.46 147.67C395.04 148.37 394.3 155.31 393.75 156.29C393.2 157.27 386.03 159.54 384.17 159.22" fill="#32517A"/>
<path d="M362.13 184.45C363.31 185.14 370.13 189.5 371.87 189.17C375.04 188.56 382.57 173.17 382.28 172.17C381.99 171.17 380.78 169.82 380 170.17C379.22 170.52 374.65 175.74 373.64 176.22C372.63 176.7 365.46 174.44 364.12 173.11" fill="#32517A"/>
<path d="M74 267.32C73.27 270 69.55 277.11 71.81 288.48C76.68 303.66 86.89 306.23 91.51 304.04C96.13 301.85 84 286.78 84.7 268.54" fill="#F8CDBA"/>
<path d="M220.42 128.72C239 122.93 368.15 163 370.47 165.54C372.79 168.08 363.47 186.84 360.05 186.84C356.63 186.84 309.8 172.94 309.8 172.94L148.8 220.41C155.13 211.15 198.46 135.58 220.42 128.72Z" fill="#FBDC8E"/>
<path d="M235.86 130.04C242.476 130.04 247.84 125.639 247.84 120.21C247.84 114.781 242.476 110.38 235.86 110.38C229.244 110.38 223.88 114.781 223.88 120.21C223.88 125.639 229.244 130.04 235.86 130.04Z" fill="#F8CDBA"/>
<path d="M103.49 230.68C108.62 254.6 116.24 269.44 129.15 272C167.54 278.48 248.77 217 260.28 207.7C271.28 205.03 388.91 172.17 389.75 170.83C390.59 169.49 387.24 159.32 385.08 158.49C382.92 157.66 272 166 266.79 167C248.52 169.47 137.72 194.3 103.49 230.68Z" fill="#FBDC8E"/>
<path d="M89.11 87.25C89.3 89.02 103.68 87.44 103.49 85.67L101.49 67.77L87.15 69.34L89.11 87.25Z" fill="#F8CDBA"/>
<path d="M98.13 73.69C96.73 73.85 88.13 78.8 88.43 81.01L87.15 69.34C89.38 69.1 98.13 73.69 98.13 73.69Z" fill="#1F161E"/>
<path d="M98.19 74.83C109.396 74.83 118.48 65.7459 118.48 54.54C118.48 43.3342 109.396 34.25 98.19 34.25C86.9842 34.25 77.9 43.3342 77.9 54.54C77.9 65.7459 86.9842 74.83 98.19 74.83Z" fill="#F8CDBA"/>
<path d="M117.681 58.4658C119.636 58.2521 121.13 57.2555 121.019 56.2398C120.908 55.2241 119.234 54.574 117.279 54.7877C115.325 55.0014 113.83 55.998 113.941 57.0137C114.052 58.0294 115.727 58.6795 117.681 58.4658Z" fill="#FA9E9F"/>
<path d="M95.4679 60.9054C97.4224 60.6917 98.9168 59.6951 98.8058 58.6794C98.6947 57.6638 97.0202 57.0136 95.0658 57.2274C93.1113 57.4411 91.6169 58.4377 91.7279 59.4533C91.839 60.469 93.5134 61.1191 95.4679 60.9054Z" fill="#FA9E9F"/>
<path d="M108.44 53.77C109.2 54.63 113.03 58.22 109.64 60.21" stroke="#1F161E" stroke-width="1.2" stroke-miterlimit="10" stroke-linecap="round"/>
<path d="M103 65.62C101.94 65.7 100.16 64.62 99.16 63.5" stroke="#1F161E" stroke-width="1.2" stroke-miterlimit="10" stroke-linecap="round"/>
<path d="M79.79 63.59C82.3802 63.59 84.48 61.4902 84.48 58.9C84.48 56.3098 82.3802 54.21 79.79 54.21C77.1998 54.21 75.1 56.3098 75.1 58.9C75.1 61.4902 77.1998 63.59 79.79 63.59Z" fill="#F8CDBA"/>
<path d="M66.1399 109.16C75.1099 81 121.4 80.4 129.71 83.32C138.02 86.24 158.24 135.21 161.39 136.11C164.54 137.01 224.06 111.4 225.63 112.3C227.2 113.2 232.63 131.17 231.69 133.64C230.75 136.11 161.61 163.74 159.36 164C160.04 167.6 167.9 190.29 166.36 194.1C164.82 197.91 126.82 228.25 103.52 230.72C99.5799 231.09 93.9999 204 93.9999 204C93.9999 209.39 91.5299 269.59 89.9499 270.26C88.3699 270.93 71.3099 273.18 69.7399 271.39C68.1699 269.6 64.9999 112.69 66.1399 109.16Z" fill="#F59D9B"/>
<path d="M94.22 204.4L105 116.12" stroke="#9A8C98" stroke-width="0.55" stroke-miterlimit="10" stroke-linecap="round"/>
<path d="M166.33 194.06C164.33 176.99 151.33 134.31 150.15 130.14" stroke="#9A8C98" stroke-width="0.55" stroke-miterlimit="10" stroke-linecap="round"/>
<path d="M106.947 23.5893C97.8414 14.1582 88.4223 16.7998 85.0837 20.0233C78.5008 26.3792 61.2318 39.7483 54 46.7307C41.7216 58.5859 50.5201 67.6311 43 74.892C31.0155 86.4634 45.8083 107 37.0001 107C36.1994 118.934 17.7433 133.056 37.0001 153C54.6377 171.267 69.698 132.016 78.0001 124C86.3022 115.984 78.0001 95.3459 78.0001 95.3459C78.0001 95.3459 99.9023 77.2787 99.3767 74.892C98.8512 72.5054 101.144 63.2156 89.707 51.9918C89.8828 49.1772 102.227 46.0243 103.5 38.2867C106.263 39.1519 115.691 44.655 118 46.7307C119.147 45.7207 116.455 33.436 106.947 23.5893Z" fill="#722C2B"/>
</g>
<g clip-path="url(#clip1_19_6)">
<path d="M290.659 322H201.795L217.895 264.758C218.295 263.376 219.118 262.165 220.241 261.307C221.363 260.449 222.724 259.991 224.119 260H299.526C300.515 259.986 301.495 260.21 302.386 260.655C303.278 261.101 304.056 261.755 304.66 262.565C305.265 263.376 305.678 264.321 305.867 265.326C306.056 266.331 306.016 267.367 305.75 268.353L290.659 322Z" fill="#9A8C98"/>
<path d="M257.135 296.622C260.137 296.622 262.572 294.105 262.572 291C262.572 287.895 260.137 285.378 257.135 285.378C254.132 285.378 251.698 287.895 251.698 291C251.698 294.105 254.132 296.622 257.135 296.622Z" fill="white"/>
<path d="M212.352 317.987H150V322.01H212.352V317.987Z" fill="#9A8C98"/>
</g>
<defs>
<clipPath id="clip0_19_6">
<rect width="401" height="305" fill="white"/>
</clipPath>
<clipPath id="clip1_19_6">
<rect width="156" height="62" fill="white" transform="translate(150 260)"/>
</clipPath>
</defs>
</svg>
