<svg width="182" height="506" viewBox="0 0 182 506" fill="none" xmlns="http://www.w3.org/2000/svg">
<path d="M79.1899 0C119.9 0 133.64 27.6 133.64 46.78C133.64 86.78 124.98 77.86 124.98 119.2C124.98 163.63 181.9 219.73 181.9 296.47C181.9 401.38 90.3299 416.76 79.1899 416.76C21.4499 416.76 -6.10352e-05 353.22 -6.10352e-05 314.67C-6.10352e-05 269 40.2199 220.11 40.2199 176.09C40.2199 143.89 29.6999 131.38 29.6999 81.46C29.6999 31.26 58.7799 0 79.1899 0Z" fill="#9A8C98"/>
<path d="M76.1499 503.67V66.06" stroke="#F5CAC3" stroke-width="3" stroke-miterlimit="10" stroke-linecap="round"/>
<path d="M76.1499 350.08L143.95 280.59" stroke="#F5CAC3" stroke-width="3" stroke-miterlimit="10" stroke-linecap="round"/>
<path d="M74.4599 155.07L52.6199 133.23" stroke="#F5CAC3" stroke-width="3" stroke-miterlimit="10" stroke-linecap="round"/>
<path d="M76.1499 96.49L106.64 66.01" stroke="#F5CAC3" stroke-width="3" stroke-miterlimit="10" stroke-linecap="round"/>
</svg>
