<svg width="629" height="329" viewBox="0 0 629 329" fill="none" xmlns="http://www.w3.org/2000/svg">
<path d="M628.09 328.47C628.21 325.9 628.3 323.32 628.3 320.73C628.3 196.87 487.65 96.46 314.15 96.46C140.65 96.46 0 196.87 0 320.73C0 323.32 0.0799915 325.9 0.209991 328.47H628.09Z" fill="#EFEFEF"/>
<g clip-path="url(#clip0_19_13)">
<path d="M219.86 63.29C199.37 82.85 275.62 153.53 286.71 143.83C297.8 134.13 239.9 44.19 219.86 63.29Z" fill="#F7EDE2"/>
<path d="M228.49 73.09C237.09 80.53 276.49 123.47 286.71 143.83" stroke="#F5CAC3" stroke-width="2" stroke-miterlimit="10" stroke-linecap="round"/>
<path d="M259.23 0.520005C297.95 -10 312.22 141.66 292.67 146.07C273.12 150.48 237.01 6.56 259.23 0.520005Z" fill="#F5CAC3"/>
<path d="M268.07 25.86C271.22 35 288.88 99.39 292.67 146.07" stroke="#FBDC8E" stroke-width="2" stroke-miterlimit="10" stroke-linecap="round"/>
</g>
<defs>
<clipPath id="clip0_19_13">
<rect width="85.02" height="147.07" fill="white" transform="translate(216.37)"/>
</clipPath>
</defs>
</svg>
