<svg width="77" height="204" viewBox="0 0 77 204" fill="none" xmlns="http://www.w3.org/2000/svg">
<g clip-path="url(#clip0_10_224)">
<path d="M44.63 138.96C44.63 135.464 41.7959 132.63 38.3 132.63C34.804 132.63 31.97 135.464 31.97 138.96V160.81C31.97 164.306 34.804 167.14 38.3 167.14C41.7959 167.14 44.63 164.306 44.63 160.81V138.96Z" fill="#F7EDE2"/>
<path d="M38.3 203.87C45.314 203.87 51 198.184 51 191.17C51 184.156 45.314 178.47 38.3 178.47C31.286 178.47 25.6 184.156 25.6 191.17C25.6 198.184 31.286 203.87 38.3 203.87Z" fill="#FBDC8E"/>
<path d="M38.3 152.88C33.2708 152.879 28.2907 153.868 23.644 155.792C18.9973 157.715 14.775 160.536 11.2184 164.091C7.6618 167.647 4.84049 171.869 2.91561 176.515C0.990731 181.161 -1.71512e-07 186.141 0 191.17H76.59C76.59 186.142 75.5996 181.163 73.6753 176.517C71.7511 171.871 68.9307 167.65 65.3751 164.095C61.8196 160.539 57.5985 157.719 52.9529 155.795C48.3074 153.87 43.3283 152.88 38.3 152.88Z" fill="#4A4E69"/>
<path d="M38.3 139.92V1" stroke="#F7EDE2" stroke-width="2" stroke-linecap="round" stroke-linejoin="round"/>
</g>
<defs>
<clipPath id="clip0_10_224">
<rect width="76.59" height="203.87" fill="white"/>
</clipPath>
</defs>
</svg>
