<svg width="121" height="143" viewBox="0 0 121 143" fill="none" xmlns="http://www.w3.org/2000/svg">
<g clip-path="url(#clip0_45_181)">
<path d="M100.78 1C109.7 1 119.53 15.39 120.17 20.39C121.98 34.49 116.36 43.93 116.68 49.61C117.4 62.28 122.1 73.61 118.62 80.52C98.09 121.42 28.11 112.37 19.77 126.44C17.63 130.44 11.48 143.06 11.48 143.06C8.23 139.81 0 117.54 0 108.85C0 100.16 12.06 76.26 35.72 59.21C48.23 50.2 71.21 1 100.78 1Z" fill="#F5CAC3"/>
<path d="M4.31006 165.15C6.92006 156.15 32.3901 79.1501 96.0801 43.5601L4.31006 165.15Z" fill="#F5CAC3"/>
<path d="M4.31006 165.15C6.92006 156.15 32.3901 79.1501 96.0801 43.5601" stroke="#FBDC8E" stroke-width="2" stroke-miterlimit="10" stroke-linecap="round"/>
<path d="M74.09 58.54C74.59 54.79 77.15 47 74.09 35.48V58.54Z" fill="#F5CAC3"/>
<path d="M74.09 58.54C74.59 54.79 77.15 47 74.09 35.48" stroke="#FBDC8E" stroke-width="2" stroke-miterlimit="10" stroke-linecap="round"/>
<path d="M58.64 72.7301C59.17 66.6501 58.64 58.0101 56.46 53.1001L58.64 72.7301Z" fill="#F5CAC3"/>
<path d="M58.64 72.7301C59.17 66.6501 58.64 58.0101 56.46 53.1001" stroke="#FBDC8E" stroke-width="2" stroke-miterlimit="10" stroke-linecap="round"/>
<path d="M44.36 89.1699C54.9721 87.6989 65.7671 88.2588 76.17 90.8199L44.36 89.1699Z" fill="#F5CAC3"/>
<path d="M44.36 89.1699C54.9721 87.6989 65.7671 88.2588 76.17 90.8199" stroke="#FBDC8E" stroke-width="2" stroke-miterlimit="10" stroke-linecap="round"/>
</g>
<defs>
<clipPath id="clip0_45_181">
<rect width="120.53" height="165.15" fill="white"/>
</clipPath>
</defs>
</svg>
