<svg width="401" height="298" viewBox="0 0 401 298" fill="none" xmlns="http://www.w3.org/2000/svg">
<path d="M35.0919 284.888C35.0919 284.888 20.7787 289.104 59.8452 290.401C98.9117 291.699 305.021 292.347 326.238 290.401C347.455 288.455 388.711 289.59 333.984 284.888C279.257 280.185 222.847 282.942 167.615 280.185C112.215 277.266 43.343 280.023 35.0919 284.888Z" fill="#1B1C1E"/>
<path d="M145.556 221.155C145.556 221.155 135.116 225.696 130.064 223.102C125.012 220.507 117.098 221.804 112.72 223.912C108.342 226.021 97.0594 216.453 94.702 217.912C92.3445 219.209 94.702 225.21 94.702 225.21C94.702 225.21 94.0284 226.183 86.6192 220.345C79.2101 214.507 71.2958 214.182 72.4745 218.885C72.4745 218.885 71.1274 219.047 65.2337 212.398C59.3401 205.587 53.7832 208.669 54.9619 211.425C54.9619 211.425 43.343 201.695 38.1229 201.858C32.9028 202.02 31.0505 204.777 31.0505 204.777C31.0505 204.777 22.7994 200.236 18.0845 201.858C13.3696 203.479 17.2425 207.209 14.5483 207.371C11.8541 207.533 3.77134 208.02 6.1288 212.398C8.48626 216.777 10.8437 216.777 5.79202 218.885C0.740322 220.993 -2.45909 225.696 2.42422 227.804C7.30753 229.913 6.1288 232.021 4.61329 236.399C3.09778 240.778 4.10812 242.724 9.66499 244.183C15.2219 245.481 15.2219 246.94 13.2012 248.562C11.1805 250.184 11.5173 253.265 16.2322 254.724C20.9471 256.184 14.8851 261.86 22.1259 265.914C29.3666 269.968 36.9442 269.157 35.2603 271.265C33.5764 273.374 35.2603 277.266 40.4804 277.103C45.7005 276.941 48.8999 276.941 49.9102 279.86C50.7522 282.779 57.8246 284.401 61.6975 283.266C65.4021 282.131 64.2234 285.212 70.7906 285.86C77.3578 286.509 81.5676 282.941 84.4302 285.86C87.2928 288.779 96.3859 285.374 99.9221 286.833C103.458 288.293 106.321 291.05 113.562 288.942C120.971 286.834 121.981 290.888 129.222 290.563C136.463 290.239 140.672 286.833 145.387 288.293C150.271 289.752 151.786 287.644 155.828 285.536C160.037 283.428 170.141 285.86 176.371 280.185C182.77 274.347 172.33 220.345 145.556 221.155Z" fill="#F6EBEF"/>
<path d="M65.5704 284.239C64.3917 283.428 63.8865 282.617 61.6974 283.266C57.9929 284.401 50.9205 282.779 49.9101 279.86C49.0682 276.941 45.7004 276.941 40.4803 277.103C35.2602 277.266 33.5763 273.373 35.2602 271.265C36.9441 269.157 29.3665 269.968 22.1258 265.914C18.9264 264.13 18.2528 261.86 18.2528 259.914C18.2528 259.914 20.2735 258.13 27.1775 252.454C33.9131 246.778 40.1435 250.184 49.0682 250.67C57.9929 251.157 63.2129 248.886 71.4641 256.022C79.8836 263.157 86.4508 280.509 65.5704 284.239Z" fill="#D4DADD"/>
<g opacity="0.61">
<path d="M159.701 263.806C159.532 263.806 159.364 263.806 159.195 263.968C159.195 263.968 159.364 263.968 159.701 263.806Z" fill="#353737"/>
<path d="M169.13 276.779L169.636 276.455C169.467 276.455 169.299 276.617 169.13 276.779Z" fill="#353737"/>
<path d="M153.302 267.698C153.133 267.698 153.133 267.86 153.133 268.022C153.133 267.86 153.302 267.698 153.302 267.698Z" fill="#353737"/>
<path d="M154.481 249.697C154.481 249.535 154.481 249.535 154.481 249.535H154.312C154.144 249.535 154.312 249.697 154.481 249.697Z" fill="#353737"/>
<path d="M153.638 250.346L153.47 250.184C153.638 250.184 153.638 250.346 153.638 250.346Z" fill="#353737"/>
<path d="M156.838 250.508C156.67 250.508 156.501 250.508 156.164 250.508C156.333 250.508 156.501 250.668 156.838 250.508Z" fill="#353737"/>
<path d="M160.037 263.644C159.869 263.644 159.869 263.806 159.701 263.806C159.869 263.806 159.869 263.806 160.037 263.644Z" fill="#353737"/>
<path d="M174.014 280.671C174.182 280.671 174.35 280.833 174.519 280.833C174.35 280.347 174.182 280.347 174.014 280.671Z" fill="#353737"/>
<path d="M155.491 254.562C153.47 255.373 155.154 254.076 153.302 254.724C153.807 254.886 154.312 255.049 153.302 255.373C152.123 255.535 153.133 254.724 151.45 255.211L152.291 255.373C151.618 255.859 150.102 256.022 150.271 256.184C152.628 255.859 149.934 257.805 150.439 258.13H150.102L149.26 259.265C149.26 259.265 149.26 259.265 149.092 259.265C149.26 259.265 149.429 259.265 149.429 259.103C148.419 259.751 147.913 260.562 148.419 261.049C149.766 260.725 149.597 262.67 150.776 262.346C150.439 262.184 150.271 262.022 150.439 261.697L151.955 261.049C152.123 261.535 150.608 261.697 151.786 261.697C153.807 260.724 151.45 261.049 151.618 260.562C152.123 260.562 152.628 260.562 152.965 260.562C152.797 259.914 153.133 258.941 150.944 259.265C151.281 258.941 152.123 258.616 152.46 258.778C151.113 258.778 153.47 257.968 152.123 257.968C154.144 257.319 153.639 258.616 154.817 258.616C153.639 259.914 155.323 260.076 155.996 260.562C154.649 261.211 153.302 261.373 152.628 262.022C152.123 263.157 153.807 262.346 154.649 262.346C154.481 262.995 152.46 263.481 152.797 264.292H151.618C149.934 265.752 152.628 264.292 152.46 264.941C152.965 264.617 153.302 264.292 153.133 263.968C153.807 263.644 154.312 263.644 154.481 263.806V263.644C155.491 263.319 156.501 262.833 156.333 263.644C154.986 263.968 155.659 264.454 155.322 264.779H154.986C155.491 264.941 155.659 265.427 155.996 265.427L155.659 265.59C156.333 265.59 157.68 264.941 157.68 265.427C157.175 265.752 155.323 266.076 155.828 266.4C154.986 266.887 154.649 266.4 154.649 265.914C154.649 266.4 153.302 267.373 152.965 267.049C151.955 267.86 153.639 267.211 153.302 267.698C153.639 267.536 153.975 267.373 154.312 267.211C152.965 268.022 154.817 268.184 155.659 267.698H154.649C155.828 267.049 156.838 267.049 157.343 266.563C155.659 267.86 159.027 267.211 157.68 268.346L158.522 267.698C158.69 268.995 161.048 268.346 162.058 268.833C161.385 268.995 159.532 270.13 159.701 269.319C160.037 270.292 158.017 270.779 157.343 271.752C157.175 272.887 159.364 270.941 160.037 270.617L159.364 270.455C161.89 269.482 160.206 272.401 162.227 272.238C161.721 272.725 161.721 272.238 161.553 272.401C160.879 273.536 162.058 272.563 162.732 272.563C162.9 273.049 162.9 273.86 161.385 274.671C161.385 275.32 162.058 274.022 162.732 273.86L162.563 274.184L164.416 273.374C164.416 274.022 164.079 275.157 163.068 276.293C164.079 276.941 166.099 274.184 167.11 274.347C166.773 275.32 166.099 275.157 165.594 275.482C165.763 275.644 166.099 275.806 166.268 275.806C164.752 276.941 164.921 275.806 163.405 277.266C165.426 276.293 164.416 277.428 166.099 277.103L166.268 276.941C167.615 276.13 167.447 277.428 167.952 277.59C167.11 278.076 166.773 277.752 166.268 277.752C166.099 278.563 167.615 279.049 169.299 278.076C169.299 278.563 169.299 279.536 168.457 279.698C169.13 280.671 170.646 278.076 170.983 279.049L169.972 280.022C169.467 282.131 172.667 280.022 172.33 281.968L173.509 280.671C173.172 281.32 173.34 281.806 173.003 282.455L172.162 282.617C171.656 284.077 173.509 281.806 173.172 282.942C173.509 282.455 173.845 281.32 174.351 280.833C171.993 280.347 172.162 277.266 169.467 277.103C169.299 277.266 169.299 277.59 168.962 277.752C169.13 277.266 168.457 277.428 169.13 276.779H169.299C168.625 276.779 169.804 274.833 169.467 274.671C168.457 275.32 168.962 273.536 167.783 275.157L168.457 274.022C167.783 274.509 167.11 275.157 166.773 275.32C166.605 274.995 167.278 274.347 167.783 274.184C167.447 272.725 166.099 271.59 164.752 270.941L165.763 270.617C165.931 270.13 163.574 270.779 165.763 269.482C164.584 269.644 165.089 267.698 163.068 269.157C164.752 267.373 162.9 267.211 162.058 266.725C160.374 268.022 161.048 266.4 160.037 266.725C161.385 265.752 161.89 266.4 162.9 265.752C161.553 266.076 161.553 265.265 161.385 264.617C161.216 263.968 161.048 263.481 159.027 264.454C159.027 264.292 159.195 264.13 159.364 264.13C159.195 263.968 159.869 263.319 159.869 263.157C159.195 263.481 159.027 263.968 158.522 263.644C158.522 263.319 159.701 262.833 160.037 262.508C158.859 262.508 158.017 261.697 156.333 262.346C156.67 262.022 157.512 261.373 157.848 261.373C156.164 261.049 157.512 260.4 156.333 259.752C156.501 260.076 158.017 259.103 157.68 259.914C159.701 258.454 156.67 258.616 157.343 257.319L155.659 257.643C155.154 257.319 156.67 256.67 157.175 256.832C157.848 255.697 156.67 255.535 156.501 255.049C156.67 254.886 157.006 254.886 157.006 255.049L156.67 254.076C156.333 254.076 155.322 254.076 154.481 254.4C155.322 253.913 155.996 253.913 155.491 254.562Z" fill="#353737"/>
<path d="M152.123 265.427C152.46 265.103 152.46 264.941 152.628 264.941C152.291 265.103 152.123 265.265 152.123 265.427Z" fill="#353737"/>
<path d="M149.597 245.319C147.24 245.805 150.102 245.967 149.429 246.454C148.924 246.129 147.576 246.292 146.903 246.454C150.102 246.616 146.398 247.265 147.24 248.238C146.229 248.4 146.061 247.913 144.882 248.075C145.724 248.562 146.229 249.373 148.082 249.211C148.25 250.184 147.913 250.994 148.25 251.481C147.408 250.994 146.566 251.805 144.882 251.481C145.893 251.643 147.24 251.967 148.418 252.292C149.766 252.616 151.113 252.941 152.46 253.103C150.607 253.751 150.439 253.913 148.755 254.238C147.913 255.697 150.607 254.076 150.271 255.211L150.439 254.562C151.113 254.887 152.797 254.4 154.144 254.076L153.47 253.103C154.817 252.778 154.817 253.427 155.154 253.589C156.838 253.427 155.996 252.616 157.343 252.454C156.333 252.616 156.501 252.13 155.996 251.967L156.67 251.805C157.175 251.157 155.491 251.319 155.322 250.832C155.491 250.67 155.659 250.67 155.828 250.67C154.986 250.67 153.975 250.832 153.638 250.508L153.807 250.67C152.123 250.67 150.776 249.859 149.092 250.832L149.26 249.535C151.113 249.373 153.975 249.048 154.312 249.535L155.154 249.373C155.996 248.724 153.47 248.238 151.955 248.886C147.408 249.211 151.449 247.102 149.429 246.454C150.607 246.292 151.113 246.616 151.955 246.778C152.123 246.94 152.123 247.265 151.113 247.427C151.955 248.4 154.817 246.616 154.649 247.913C154.144 248.562 152.628 247.589 152.628 248.4H155.996C155.828 247.913 155.154 247.589 154.649 247.102C153.302 246.129 153.133 244.994 153.133 244.346C153.302 243.535 153.638 243.048 153.638 243.048C152.965 239.481 152.628 235.751 152.797 232.021C152.46 230.724 152.628 230.399 149.429 229.426C148.755 229.588 148.924 230.399 147.745 229.913C148.924 230.237 149.597 230.724 149.429 231.372C148.25 231.372 148.924 230.723 148.587 230.886L149.092 231.048C148.418 230.886 148.082 230.724 148.082 230.561C146.229 231.048 146.398 232.507 148.587 233.318C147.24 233.805 146.735 232.669 145.893 232.345C145.219 233.318 145.051 234.291 144.882 235.264C144.714 236.237 144.714 237.048 144.714 238.183C146.903 238.183 146.061 238.345 147.576 238.67L146.735 238.832C147.071 238.67 148.587 238.994 149.092 238.67C147.408 239.967 151.955 240.129 152.797 240.778H151.618C151.786 241.427 151.955 241.589 152.46 242.075C150.439 243.21 152.123 241.264 149.429 241.589L149.934 241.913C148.924 241.751 147.071 241.751 146.229 241.427C148.082 242.4 145.724 243.048 147.071 244.183C145.893 244.183 144.714 243.21 144.545 242.886C144.377 243.373 145.387 244.021 144.209 244.183H145.724C145.893 244.832 144.209 244.183 143.367 244.508C143.872 245.967 148.418 244.021 149.597 245.319Z" fill="#353737"/>
<path d="M153.302 261.211C153.302 261.049 153.133 260.887 152.965 260.724C153.133 260.887 153.133 261.049 153.302 261.211Z" fill="#353737"/>
<path d="M149.26 259.265C149.092 259.265 148.924 259.427 148.755 259.427C148.924 259.427 149.092 259.427 149.26 259.265Z" fill="#353737"/>
<path d="M147.24 259.751C147.913 259.427 147.913 259.589 148.755 259.427C148.25 259.427 147.913 258.778 147.24 259.751Z" fill="#353737"/>
<path d="M187.317 297.374C187.485 297.05 187.653 296.888 187.99 296.564L188.495 295.915L188.832 295.591L189 295.428C189 295.428 189 295.428 189 295.266C189 294.942 189.169 294.78 189.169 294.618C189.506 294.293 189.842 294.131 190.011 294.131L186.475 294.942L189.674 294.293C189.169 294.293 188.832 294.618 188.664 295.104C188.664 295.266 188.495 295.266 188.495 295.428V295.591C188.495 295.591 188.495 295.591 188.495 295.753L188.327 295.915L187.485 297.05L187.317 297.212C187.653 297.05 187.485 297.212 187.317 297.374Z" fill="#353737"/>
<path d="M187.316 295.591L186.98 294.78L185.633 296.401C186.306 296.726 186.811 295.266 187.316 295.591Z" fill="#353737"/>
<path d="M186.306 293.807L186.643 293.482C186.475 293.482 186.475 293.645 186.306 293.807Z" fill="#353737"/>
<path d="M185.969 294.455L184.959 295.591L186.306 294.942L186.138 294.618C186.306 294.131 186.306 293.969 186.475 293.645L185.633 294.455C185.633 294.455 185.969 294.293 185.969 294.455Z" fill="#353737"/>
<path d="M185.296 294.293C185.296 294.455 185.128 294.618 185.128 294.78C185.128 294.618 185.296 294.455 185.296 294.293Z" fill="#353737"/>
<path d="M185.127 291.05C184.959 291.536 184.286 292.185 183.949 292.672C184.286 293.482 185.296 291.536 185.464 292.509C184.117 293.158 185.296 293.482 185.127 294.293C185.633 292.996 185.801 292.023 185.464 291.374L184.959 292.185C184.791 292.023 185.127 291.536 185.127 291.05Z" fill="#353737"/>
<path d="M181.086 291.374L182.265 290.401C181.928 291.05 182.77 291.374 181.928 292.672C182.265 292.672 182.602 292.185 183.107 291.861C182.938 292.672 182.77 293.158 183.612 292.347C182.938 290.888 183.444 290.888 182.77 289.915C182.938 289.59 183.107 289.753 183.107 289.915L182.938 288.942C181.928 290.563 181.086 290.239 181.086 291.374Z" fill="#353737"/>
<path d="M180.749 290.077C181.254 290.239 182.265 289.266 182.433 288.455L180.918 288.779C181.254 288.942 181.591 288.942 180.749 290.077Z" fill="#353737"/>
<path d="M180.076 289.59C180.244 288.942 180.749 287.32 179.739 288.293C180.413 288.617 178.897 290.239 180.076 289.59Z" fill="#353737"/>
<path d="M177.382 286.509L177.718 287.806C176.876 289.428 176.876 287.969 176.203 288.455C176.708 289.266 176.876 288.617 178.055 287.969C178.224 288.131 179.066 287.644 179.571 287.32C177.718 287.969 180.244 284.239 177.382 286.509Z" fill="#353737"/>
<path d="M178.223 289.104L178.729 288.617L177.887 288.78L178.223 289.104Z" fill="#353737"/>
<path d="M176.54 283.428C177.382 281.32 174.856 283.752 174.856 282.617C175.024 282.617 175.024 282.455 175.361 282.293L174.687 282.131L175.024 281.806C174.182 282.779 173.34 282.941 172.498 283.428C172.161 284.887 173.677 282.293 173.34 283.914C172.835 284.239 172.161 284.887 171.825 285.212C172.498 284.887 173.172 284.401 173.677 283.914C174.182 284.077 173.509 284.563 173.34 284.888C174.182 284.563 175.361 283.104 175.698 283.752C175.361 284.887 174.351 285.05 175.361 285.05C176.203 283.104 175.866 285.698 176.876 284.888C177.045 285.536 176.708 286.834 176.203 287.32C177.045 286.023 178.392 285.212 178.897 285.05L177.382 285.698L178.224 283.914C176.876 284.239 176.708 283.914 176.54 283.428Z" fill="#353737"/>
<path d="M171.656 285.05C171.488 285.05 171.488 285.212 171.319 285.212C171.319 285.212 171.488 285.212 171.656 285.05Z" fill="#353737"/>
<path d="M175.698 287.807L175.193 287.969L175.024 288.617L175.698 287.807Z" fill="#353737"/>
<path d="M170.477 285.861C170.477 286.023 170.983 285.536 170.983 285.374L170.309 285.861H170.477Z" fill="#353737"/>
<path d="M170.814 284.563L171.151 283.428L170.478 284.077L170.814 284.563Z" fill="#353737"/>
<path d="M161.553 274.833C161.384 275.644 162.226 274.671 163.068 274.184C162.9 273.374 162.226 274.833 161.553 274.833Z" fill="#353737"/>
<path d="M154.986 269.157C154.481 269.968 155.828 269.644 156.164 270.13C156.501 269.319 155.828 269.157 154.986 269.157Z" fill="#353737"/>
<path d="M149.092 268.184C149.597 268.022 149.766 268.184 149.766 267.86L152.123 267.211C152.46 266.076 149.934 267.698 149.092 268.184Z" fill="#353737"/>
<path d="M146.735 264.454L147.913 264.779L147.745 264.454C148.587 264.292 149.092 264.13 149.934 263.968C149.26 263.644 148.25 263.644 146.735 264.454Z" fill="#353737"/>
<path d="M150.608 264.292L150.439 264.13C150.102 264.292 149.934 264.454 150.608 264.292Z" fill="#353737"/>
<path d="M150.271 263.806C150.102 263.806 150.102 263.806 149.934 263.806C150.102 263.806 150.271 263.968 150.439 263.968C150.608 263.968 150.608 263.806 150.271 263.806Z" fill="#353737"/>
<path d="M147.577 263.481L146.903 262.508L146.735 263.157C147.913 262.508 146.061 263.968 147.577 263.481Z" fill="#353737"/>
<path d="M146.23 257.157L147.577 256.67C147.577 255.859 144.377 255.859 146.566 254.724C145.893 255.211 144.882 254.562 144.714 255.535C145.893 255.535 146.398 256.508 146.23 257.157Z" fill="#353737"/>
<path d="M147.408 253.913C147.913 253.913 148.082 253.751 148.419 253.427C148.587 253.103 147.745 253.103 147.24 253.265C149.092 253.103 146.229 253.913 147.408 253.913Z" fill="#353737"/>
<path d="M146.398 250.508C146.398 250.67 146.734 250.994 146.903 250.67C146.734 250.021 145.219 250.508 144.209 250.346C143.535 251.157 145.724 251.157 146.398 250.508Z" fill="#353737"/>
<path d="M155.996 244.346C154.817 244.508 154.986 244.994 155.491 244.994C155.154 244.994 155.491 244.67 155.996 244.346Z" fill="#353737"/>
<path d="M145.893 245.481L145.724 245.643H147.577L145.893 245.481Z" fill="#353737"/>
<path d="M144.545 241.589L143.367 241.264L143.535 241.913L144.545 241.589Z" fill="#353737"/>
<path d="M144.882 240.94L144.714 240.291L144.209 240.454C143.872 240.778 144.882 240.616 144.882 240.94Z" fill="#353737"/>
<path d="M144.546 238.994C144.714 239.156 144.546 239.156 144.209 239.156L145.051 239.805L144.546 238.994Z" fill="#353737"/>
<path d="M152.965 229.913C154.144 230.237 153.47 229.588 153.807 229.426C153.47 229.426 151.955 229.426 152.965 229.913Z" fill="#353737"/>
</g>
<path d="M316.809 278.563C316.809 278.563 321.86 276.941 326.07 267.211C330.28 257.481 332.469 255.859 334.321 248.4C336.173 240.94 339.204 233.805 340.383 223.426C341.562 213.047 346.95 198.939 347.624 194.236C348.298 189.533 297.949 166.991 285.32 187.1C272.859 207.209 305.695 266.725 316.809 278.563Z" fill="#F6EBEF"/>
<path d="M339.878 227.642C338.531 235.751 336.173 241.913 334.321 248.4C332.805 254.238 331.122 256.346 328.596 261.535C328.596 261.535 320.681 255.859 323.039 248.075C325.396 240.453 323.207 245.156 325.733 235.913C328.259 227.156 339.373 227.642 339.878 227.642Z" fill="#B3B9BC"/>
<g opacity="0.61">
<path d="M314.788 223.102C314.788 223.264 314.788 223.426 314.956 223.588C314.956 223.588 314.956 223.426 314.788 223.102Z" fill="#353737"/>
<path d="M327.922 214.993L327.585 214.507C327.585 214.669 327.754 214.831 327.922 214.993Z" fill="#353737"/>
<path d="M318.661 228.615C318.661 228.777 318.829 228.777 318.998 228.777C318.829 228.777 318.661 228.777 318.661 228.615Z" fill="#353737"/>
<path d="M301.822 227.804C301.822 227.642 301.822 227.642 301.822 227.642C301.653 227.642 301.653 227.804 301.822 227.804Z" fill="#353737"/>
<path d="M301.148 229.264C300.98 229.264 300.98 229.264 300.98 229.426V229.588C301.148 229.588 301.148 229.264 301.148 229.264Z" fill="#353737"/>
<path d="M301.99 229.75L301.822 229.913C301.822 229.913 301.822 229.913 301.99 229.75Z" fill="#353737"/>
<path d="M297.949 239.156L298.117 239.805C298.117 239.48 298.117 239.318 297.949 239.156Z" fill="#353737"/>
<path d="M301.653 226.993C301.653 227.156 301.653 227.318 301.653 227.642C301.653 227.48 301.822 227.318 301.653 226.993Z" fill="#353737"/>
<path d="M314.62 222.777C314.62 222.939 314.788 222.939 314.788 223.102C314.788 222.939 314.788 222.777 314.62 222.777Z" fill="#353737"/>
<path d="M314.788 227.804C314.956 227.642 314.956 227.642 314.788 227.804V227.804Z" fill="#353737"/>
<path d="M331.964 210.939C331.964 210.777 332.132 210.615 332.132 210.452C331.795 210.615 331.795 210.777 331.964 210.939Z" fill="#353737"/>
<path d="M305.863 227.48C306.874 229.102 305.358 227.804 306.2 229.426C306.368 228.94 306.368 228.615 306.874 229.426C307.042 230.399 306.2 229.588 306.874 231.048L307.042 230.399C307.715 231.048 307.884 232.183 308.052 232.021C307.379 229.913 309.568 232.183 309.905 231.696V232.021L310.915 232.669C310.915 232.669 310.915 232.669 310.915 232.832C310.915 232.669 310.747 232.669 310.747 232.507C311.42 233.318 312.262 233.805 312.599 233.318C312.262 232.183 313.946 232.183 313.609 231.21C313.609 231.534 313.441 231.696 312.936 231.534L312.262 230.237C312.767 230.075 312.936 231.372 312.936 230.399C311.925 228.777 312.262 230.723 311.925 230.723C311.757 230.237 311.757 229.913 311.925 229.588C311.252 229.913 310.41 229.588 310.915 231.534C310.578 231.21 310.241 230.399 310.241 230.237C310.41 231.534 309.399 229.426 309.399 230.561C308.726 228.94 309.905 229.264 309.736 228.129C311.083 229.102 311.083 227.48 311.588 226.994C312.262 228.129 312.43 229.426 313.104 229.913C314.114 230.399 313.441 228.94 313.272 228.129C313.946 228.291 314.451 230.075 315.293 229.75V230.723C316.64 232.183 315.293 229.913 315.798 230.075C315.461 229.75 315.125 229.264 314.788 229.588C314.451 228.94 314.451 228.615 314.619 228.453H314.451C314.114 227.642 313.609 226.669 314.283 226.831C314.62 227.967 315.125 227.318 315.461 227.804V228.129C315.63 227.642 315.967 227.48 316.135 227.318L316.303 227.642C316.303 227.156 315.63 225.858 316.135 225.858C316.472 226.345 316.809 227.967 317.145 227.48C317.482 228.291 317.145 228.615 316.64 228.453C317.145 228.453 318.156 229.588 317.651 229.913C318.324 230.723 317.819 229.264 318.324 229.588C318.156 229.264 317.987 228.94 317.819 228.777C318.661 230.075 318.829 228.291 318.156 227.48V228.453C317.482 227.48 317.651 226.507 316.977 226.021C318.156 227.48 317.482 224.561 318.661 225.696L317.987 225.047C319.166 224.885 318.661 222.777 319.166 221.804C319.166 222.453 320.345 224.075 319.503 223.912C320.513 223.75 320.85 225.372 321.692 226.021C322.702 226.183 320.85 224.237 320.682 223.588L320.513 224.237C319.671 221.966 322.365 223.588 322.365 221.804C322.871 222.291 322.365 222.291 322.365 222.453C323.544 223.101 322.534 221.966 322.534 221.48C323.039 221.318 323.881 221.48 324.555 222.777C325.228 222.777 323.881 222.128 323.881 221.642L324.218 221.804L323.544 220.182C324.218 220.345 325.228 220.507 326.238 221.48C326.912 220.669 324.386 218.723 324.555 217.75C325.396 218.074 325.228 218.723 325.565 219.047L326.07 218.561C326.912 220.02 326.07 219.696 327.249 221.155C326.407 219.372 327.417 220.182 327.249 218.723L327.08 218.561C326.407 217.426 327.754 217.588 327.922 217.101C328.259 217.75 327.922 218.236 327.922 218.561C328.764 218.723 329.269 217.426 328.427 215.804C328.764 215.804 329.775 215.966 329.943 216.777C330.953 216.29 328.596 214.669 329.606 214.507L330.448 215.48C332.469 216.128 330.617 213.047 332.469 213.534L331.29 212.398C331.964 212.723 332.469 212.723 332.974 213.047V213.696C334.153 214.344 332.3 212.561 333.479 212.885C333.142 212.561 332.132 212.074 331.627 211.75C331.29 212.723 330.28 213.209 329.438 213.696C328.596 214.182 327.754 214.669 327.586 215.804C327.754 215.966 327.922 215.966 328.091 216.29C327.586 216.128 327.586 216.777 327.08 215.966V215.804C326.912 216.453 325.228 215.317 325.06 215.48C325.565 216.453 323.881 215.804 325.396 217.101L324.386 216.453C324.723 217.101 325.396 217.75 325.396 218.074C325.06 218.236 324.555 217.588 324.386 217.101C322.871 217.426 321.86 218.399 321.018 219.696L320.682 218.723C320.176 218.561 320.682 220.669 319.503 218.723C319.503 219.858 317.651 219.209 318.998 221.155C317.314 219.534 317.145 221.318 316.472 221.966C317.819 223.426 316.135 222.777 316.472 223.75C315.461 222.615 316.303 221.966 315.63 221.155C316.135 223.588 312.599 221.155 314.283 224.561C314.114 224.561 313.946 224.399 313.946 224.237C313.778 224.399 313.272 223.912 312.936 223.75C313.272 224.399 313.778 224.399 313.441 224.885C313.104 224.885 312.599 223.912 312.262 223.588C312.262 224.723 311.42 225.534 312.094 226.831C311.757 226.507 311.083 225.858 311.083 225.534C310.747 227.156 310.073 225.858 309.568 226.994C309.905 226.831 308.894 225.534 309.736 225.858C308.221 224.074 308.557 226.994 307.21 226.345L307.547 227.804C307.21 228.291 306.537 226.994 306.537 226.507C305.358 226.183 305.358 227.156 304.684 227.318C304.516 227.156 304.516 226.994 304.684 226.994L303.843 227.318C303.843 227.642 303.843 228.453 304.348 229.264C305.19 227.804 305.19 227.156 305.863 227.48Z" fill="#353737"/>
<path d="M316.472 229.75C316.135 229.426 315.967 229.426 315.967 229.426C316.135 229.588 316.303 229.75 316.472 229.75Z" fill="#353737"/>
<path d="M297.781 234.453C298.791 236.399 298.286 233.967 298.791 234.291C298.454 234.778 299.128 235.913 299.464 236.399C298.791 233.642 300.306 236.724 300.98 235.751C301.317 236.561 300.98 236.886 301.317 237.859C301.485 237.048 302.159 236.399 301.654 234.94C302.495 234.615 303.337 234.778 303.674 234.453C303.337 235.264 304.179 235.913 304.348 237.372C304.179 235.426 304.685 232.832 304.685 230.561C305.526 232.021 305.695 232.183 306.2 233.642C307.716 234.291 305.863 232.021 306.874 232.183H306.368C306.537 231.534 305.863 230.075 305.526 228.94L304.516 229.588C304.011 228.453 304.685 228.453 304.853 227.967C304.516 226.507 303.843 227.318 303.506 226.345C303.843 227.318 303.169 227.156 303.169 227.642L302.832 227.156C301.99 226.831 302.495 228.291 301.99 228.453C301.822 228.291 301.822 228.129 301.822 228.129C301.99 228.777 302.159 229.75 301.99 230.075L302.159 229.913C302.327 231.372 301.822 232.669 303.169 233.967H301.822C301.317 232.345 300.475 230.075 300.98 229.588L300.812 228.94C299.97 228.291 299.97 230.723 300.812 231.859C301.99 235.751 299.128 232.669 298.959 234.453C298.454 233.48 298.791 232.832 298.622 232.183C298.791 232.021 298.959 231.859 299.296 232.669C300.138 231.696 297.781 229.588 299.128 229.426C299.97 229.75 299.128 231.372 299.97 231.048L299.296 228.129C298.791 228.453 298.622 229.102 298.286 229.588C296.77 232.345 294.244 231.372 294.244 231.372C292.56 232.183 290.708 232.994 288.687 234.291C287.677 234.94 286.498 235.751 285.32 237.048C284.983 237.534 284.646 237.859 284.478 238.345C284.141 238.832 283.973 239.318 283.804 239.967C283.467 241.102 283.467 242.399 283.636 243.21C283.804 243.535 283.804 243.697 283.973 244.021C284.141 244.183 284.141 244.345 284.309 244.508C284.478 244.832 284.815 244.994 284.983 245.156C285.488 245.481 286.33 245.318 287.846 244.832C288.182 244.345 287.677 243.859 288.687 243.535C287.677 243.859 286.835 243.697 286.667 242.886C287.677 242.562 287.34 243.372 287.509 243.21V243.048C288.014 242.886 288.519 242.886 288.519 243.048C289.193 242.399 289.529 242.237 289.361 242.075C289.361 241.913 289.193 241.913 288.856 241.751C288.519 241.589 288.182 241.264 287.846 240.94C288.519 240.94 288.856 241.264 289.193 241.426C289.529 241.751 289.866 241.913 290.371 241.913C290.877 241.913 290.877 242.075 291.382 241.751C291.55 241.589 291.887 241.426 292.055 241.264C292.392 241.102 292.729 240.94 293.066 240.778C292.224 238.994 292.729 239.643 292.392 238.345L292.897 238.832C292.729 238.507 292.392 237.21 291.719 237.048C293.402 237.859 291.887 234.129 292.392 233.156L292.729 234.129C293.234 233.642 293.402 233.642 293.739 232.994C295.423 234.291 292.897 233.642 294.244 235.751L294.413 235.264C294.581 236.237 295.086 237.859 295.086 238.507C295.423 236.724 296.602 238.507 297.275 237.048C297.612 238.183 296.939 239.318 296.77 239.48C297.107 239.48 297.444 238.507 297.949 239.48L297.444 238.183C297.949 237.859 297.781 239.318 298.454 240.129C299.801 239.156 296.939 235.588 297.781 234.453Z" fill="#353737"/>
<path d="M312.43 228.777C312.262 228.777 312.094 228.94 312.094 229.102C312.262 229.102 312.43 228.94 312.43 228.777Z" fill="#353737"/>
<path d="M310.915 232.507C310.915 232.669 311.083 232.832 311.083 232.994C311.083 232.832 311.083 232.669 310.915 232.507Z" fill="#353737"/>
<path d="M311.588 234.453C311.252 233.967 311.42 233.805 311.083 233.156C311.083 233.48 310.746 233.642 311.588 234.453Z" fill="#353737"/>
<path d="M349.981 201.047C349.645 200.722 349.645 200.236 349.308 200.074V200.884L349.981 201.047Z" fill="#353737"/>
<path d="M347.961 201.209L347.119 201.371L348.466 202.831C348.803 202.182 347.624 201.695 347.961 201.209Z" fill="#353737"/>
<path d="M346.109 201.858L345.772 201.533C345.94 201.695 345.94 201.858 346.109 201.858Z" fill="#353737"/>
<path d="M346.782 202.344L347.792 203.317L347.455 202.182H347.119C346.782 201.857 346.445 202.02 346.277 201.857L346.95 202.668C346.614 202.506 346.613 202.344 346.782 202.344Z" fill="#353737"/>
<path d="M346.445 202.831C346.614 202.831 346.614 202.993 346.782 202.993C346.614 202.993 346.445 202.993 346.445 202.831Z" fill="#353737"/>
<path d="M343.414 202.506C343.919 202.668 344.256 203.317 344.761 203.804C345.603 203.641 343.919 202.506 344.761 202.344C345.098 203.641 345.603 202.668 346.445 202.831C345.267 202.182 344.425 201.858 343.751 202.182L344.425 202.668C344.256 202.993 343.919 202.506 343.414 202.506Z" fill="#353737"/>
<path d="M343.077 206.074L342.404 204.939C342.909 205.263 343.414 204.776 344.425 205.587C344.425 205.263 344.088 204.939 343.919 204.452C344.593 204.776 345.098 204.939 344.425 204.128C342.909 204.452 342.909 203.966 342.067 204.452C341.899 204.29 341.899 204.128 342.067 204.128H341.057C342.404 205.263 342.067 205.912 343.077 206.074Z" fill="#353737"/>
<path d="M341.73 206.236C342.067 205.75 341.225 204.777 340.383 204.452L340.551 205.912C340.72 205.75 340.888 205.263 341.73 206.236Z" fill="#353737"/>
<path d="M341.225 206.723C340.552 206.398 339.204 205.75 340.046 206.885C340.383 206.398 341.73 207.858 341.225 206.723Z" fill="#353737"/>
<path d="M338.026 208.668L339.373 208.506C340.72 209.479 339.541 209.155 339.878 209.966C340.72 209.641 340.046 209.479 339.71 208.182C339.878 208.02 339.541 207.209 339.373 206.722C339.373 208.506 336.173 205.912 338.026 208.668Z" fill="#353737"/>
<path d="M340.552 208.344L340.046 207.858L340.215 208.506L340.552 208.344Z" fill="#353737"/>
<path d="M334.995 209.155C333.142 208.182 334.995 210.777 333.984 210.615C333.984 210.452 333.816 210.452 333.648 210.128L333.479 210.615L333.142 210.29C333.984 211.101 333.984 211.75 334.49 212.561C335.837 213.047 333.648 211.263 334.995 211.912C335.332 212.398 335.837 213.047 336.005 213.371C335.837 212.723 335.332 212.236 334.995 211.588C335.163 211.263 335.668 211.75 336.005 212.074C335.837 211.263 334.49 210.128 335.163 209.966C336.173 210.452 336.174 211.263 336.342 210.452C334.658 209.479 337.015 210.128 336.342 209.155C337.015 208.993 338.194 209.479 338.531 210.128C337.352 209.155 336.679 208.02 336.679 207.371L337.015 208.831L335.5 207.858C335.837 208.831 335.5 208.993 334.995 209.155Z" fill="#353737"/>
<path d="M336.005 213.534C336.005 213.696 336.005 213.696 336.173 213.858C336.173 213.858 336.173 213.696 336.005 213.534Z" fill="#353737"/>
<path d="M339.036 210.452L339.204 210.777L339.71 210.939L339.036 210.452Z" fill="#353737"/>
<path d="M336.51 214.669C336.678 214.669 336.173 214.182 336.173 214.182L336.678 214.831L336.51 214.669Z" fill="#353737"/>
<path d="M335.331 214.344L334.489 213.858L334.826 214.507L335.331 214.344Z" fill="#353737"/>
<path d="M325.397 221.642C326.07 221.804 325.228 220.993 324.891 220.345C324.218 220.345 325.397 220.993 325.397 221.642Z" fill="#353737"/>
<path d="M319.84 227.156C320.682 227.48 320.345 226.345 320.682 226.183C320.176 225.858 319.84 226.507 319.84 227.156Z" fill="#353737"/>
<path d="M319.166 232.345C318.997 232.021 319.166 231.696 318.829 231.696L318.156 229.75C317.145 229.426 318.661 231.534 319.166 232.345Z" fill="#353737"/>
<path d="M315.967 234.453L316.135 233.48L315.798 233.642C315.461 232.832 315.461 232.507 315.293 231.696C314.956 232.345 315.125 233.318 315.967 234.453Z" fill="#353737"/>
<path d="M315.461 231.048L315.293 231.21C315.63 231.534 315.798 231.696 315.461 231.048Z" fill="#353737"/>
<path d="M315.125 231.534C315.125 231.696 315.125 231.696 315.125 231.859C315.125 231.696 315.293 231.534 315.293 231.534C315.293 231.21 315.125 231.048 315.125 231.534Z" fill="#353737"/>
<path d="M314.956 233.805L314.114 234.453L314.619 234.615C314.114 233.48 315.461 235.102 314.956 233.805Z" fill="#353737"/>
<path d="M309.231 235.426L308.558 234.291C307.884 234.291 308.221 237.21 307.042 235.426C307.716 236.075 307.21 236.886 308.052 236.886C307.884 235.913 308.726 235.264 309.231 235.426Z" fill="#353737"/>
<path d="M306.2 234.778C306.2 234.453 305.863 234.291 305.695 233.967C305.358 233.967 305.358 234.615 305.695 234.94C305.19 233.318 306.368 235.751 306.2 234.778Z" fill="#353737"/>
<path d="M303.337 236.075C303.506 235.913 303.674 235.751 303.337 235.589C302.832 235.913 303.506 237.21 303.674 238.021C304.348 238.508 304.011 236.562 303.337 236.075Z" fill="#353737"/>
<path d="M295.423 229.102C295.928 230.075 296.265 229.75 296.265 229.426C296.265 229.75 295.76 229.426 295.423 229.102Z" fill="#353737"/>
<path d="M298.791 237.534L299.128 237.697L298.623 236.075L298.791 237.534Z" fill="#353737"/>
<path d="M295.928 239.643V240.778L296.433 240.291L295.928 239.643Z" fill="#353737"/>
<path d="M295.255 239.643L294.749 239.967L295.086 240.291C295.423 240.291 295.086 239.643 295.255 239.643Z" fill="#353737"/>
<path d="M293.907 240.453C293.907 240.291 294.076 240.453 294.076 240.616C294.076 240.291 294.244 240.129 294.244 239.805C294.076 239.967 293.907 240.129 293.907 240.453Z" fill="#353737"/>
<path d="M285.656 245.967C284.646 246.292 285.488 246.616 285.488 246.94C285.656 246.778 286.667 245.643 285.656 245.967Z" fill="#353737"/>
</g>
<path d="M264.608 43.5816C264.608 43.5816 255.346 43.5816 247.095 39.2031C238.844 34.8246 223.689 35.1489 220.153 37.4193C216.785 39.6896 220.153 41.96 220.153 41.96C220.153 41.96 202.472 40.6626 197.925 44.7168C193.379 48.771 196.073 50.8792 196.073 50.8792C196.073 50.8792 177.382 53.6361 176.54 57.8524C175.698 62.0688 181.423 59.7984 172.33 64.6635C163.237 69.5285 146.229 82.5019 149.26 85.7453C152.291 88.9886 151.281 91.259 142.862 97.9079C134.611 104.557 137.136 108.611 139.831 109.097C139.831 109.097 130.232 115.584 130.064 122.72C129.896 129.855 133.095 128.558 130.064 133.747C127.033 138.936 119.792 148.666 122.15 154.504C124.507 160.18 130.064 159.045 126.359 164.721C122.655 170.397 119.792 178.343 123.834 182.397C127.875 186.614 129.727 187.425 128.212 191.641C126.528 195.857 125.854 201.695 130.401 206.236C134.947 210.777 131.074 220.993 136.968 225.372C142.693 229.75 142.525 228.615 143.03 235.264C143.535 241.913 148.924 240.616 151.786 247.913C154.649 255.211 157.68 268.995 161.553 268.671C165.258 268.346 172.498 283.914 176.54 287.158C180.581 290.239 315.125 287.158 316.977 287.158C318.829 287.158 320.176 277.59 316.977 271.265C313.778 264.941 313.441 258.292 309.063 252.778C304.684 247.265 306.874 234.453 305.021 230.399C304.011 227.967 304.179 226.831 304.179 226.831C304.179 226.831 311.252 226.183 316.135 221.804C321.018 217.426 332.469 213.534 337.521 208.669C342.572 203.804 349.476 203.641 351.665 198.614C354.023 193.587 354.36 190.181 358.064 190.344C361.769 190.506 365.473 190.506 368.336 180.127C371.199 169.748 372.882 176.073 374.23 166.018C375.577 155.964 381.639 156.288 380.965 147.369C380.292 138.45 377.261 132.612 378.944 132.936C380.628 133.26 382.986 128.558 378.944 119.314C374.903 110.233 374.061 110.395 373.219 103.908C372.377 97.4214 364.968 52.0144 331.458 51.8522C298.286 50.8792 264.608 43.5816 264.608 43.5816Z" fill="#F6EBEF"/>
<g opacity="0.61">
<path d="M367.831 121.584C367.831 121.422 367.831 121.26 367.831 121.098C367.662 121.098 367.662 121.26 367.831 121.584Z" fill="#353737"/>
<path d="M352.17 124.503C352.002 124.666 352.002 124.666 352.17 124.503V124.666V124.503Z" fill="#353737"/>
<path d="M367.494 117.368C367.494 117.206 367.662 116.882 367.662 116.557L367.494 117.368Z" fill="#353737"/>
<path d="M365.136 115.746C365.136 115.584 364.968 115.584 364.968 115.584C365.136 115.584 365.136 115.746 365.136 115.746Z" fill="#353737"/>
<path d="M381.975 115.098C382.144 115.098 382.144 115.098 382.144 114.935V114.773C381.975 114.773 381.975 115.098 381.975 115.098Z" fill="#353737"/>
<path d="M381.133 114.773L381.302 114.611C381.302 114.611 381.133 114.611 381.133 114.773Z" fill="#353737"/>
<path d="M382.817 105.205L382.481 104.719C382.649 104.881 382.649 105.043 382.817 105.205Z" fill="#353737"/>
<path d="M381.807 117.368C381.807 117.206 381.807 117.044 381.639 116.882C381.639 117.044 381.47 117.206 381.807 117.368Z" fill="#353737"/>
<path d="M346.277 125.639C346.108 125.639 345.94 125.801 345.771 125.963C346.108 125.963 346.277 125.963 346.277 125.639Z" fill="#353737"/>
<path d="M377.261 117.53C376.25 116.071 377.766 117.206 376.755 115.746C376.755 116.233 376.587 116.557 376.082 115.746C375.745 114.773 376.587 115.584 376.082 114.287L375.913 114.936C375.24 114.449 375.072 113.152 374.903 113.476C375.577 115.422 373.388 113.314 373.219 113.8V113.638L372.209 113.152C372.209 113.152 372.209 113.152 372.209 112.99C372.209 113.152 372.377 113.152 372.377 113.314C371.704 112.503 371.03 112.179 370.693 112.503C371.03 113.638 369.515 113.476 369.683 114.449C369.683 114.125 369.851 113.963 370.357 114.125L370.862 115.422C370.357 115.584 370.188 114.287 370.188 115.26C371.03 116.882 370.862 114.936 371.199 115.098C371.367 115.584 371.367 115.909 371.199 116.233C371.872 116.071 372.714 116.233 372.209 114.449C372.546 114.773 372.882 115.422 372.882 115.746C372.714 114.611 373.724 116.557 373.556 115.422C374.23 117.044 373.051 116.719 373.219 117.855C372.041 116.882 371.872 118.341 371.367 118.99C370.862 117.855 370.693 116.719 370.188 116.071C369.178 115.584 369.851 116.882 369.851 117.855C369.178 117.692 368.841 115.909 368.168 116.071V115.098C366.989 113.638 368.168 115.909 367.662 115.746C367.999 116.071 368.168 116.557 368.504 116.395C368.841 117.044 368.673 117.368 368.504 117.53H368.673C368.841 118.341 369.178 119.314 368.504 119.152C368.336 118.017 367.831 118.503 367.494 118.179V117.855C367.326 118.341 366.82 118.341 366.82 118.665L366.652 118.341C366.652 118.828 366.989 120.125 366.484 119.963C366.315 119.476 366.147 117.855 365.81 118.341C365.642 117.53 365.978 117.368 366.484 117.368C365.978 117.206 365.305 116.071 365.642 115.909C365.137 114.936 365.473 116.557 364.968 116.071C365.137 116.395 365.136 116.719 365.305 117.044C364.8 115.746 364.463 117.206 364.8 118.179L364.968 117.368C365.473 118.341 365.137 119.314 365.473 119.801C364.631 118.179 364.631 120.936 363.789 119.638L364.295 120.449C363.116 120.287 363.116 122.395 362.274 123.206C362.442 122.557 361.769 120.774 362.611 121.098C361.6 121.098 361.769 119.314 361.095 118.503C360.253 118.017 361.264 120.287 361.264 120.936L361.6 120.449C361.6 122.72 359.748 120.611 359.074 122.071C358.906 121.584 359.243 121.747 359.243 121.422C358.401 120.449 358.906 121.747 358.738 122.233C358.233 122.233 357.559 121.747 357.391 120.449C356.885 120.287 357.727 121.26 357.559 121.747L357.391 121.422L357.222 123.044C356.717 122.72 355.875 122.071 355.37 120.936C354.36 121.422 355.707 124.179 355.201 124.828C354.528 124.179 355.033 123.855 355.033 123.206C354.865 123.368 354.528 123.368 354.36 123.53C354.191 121.909 355.033 122.557 354.528 120.936C354.36 122.882 353.854 121.584 353.518 122.882V123.044C353.518 124.341 352.507 123.53 352.17 123.855C352.17 123.044 352.676 122.882 352.844 122.557C352.17 122.071 351.16 122.882 350.992 124.504C350.655 124.341 349.981 123.693 350.318 123.044C349.308 122.882 350.318 125.477 349.308 124.99L349.139 123.693C347.961 122.071 347.456 125.477 346.445 124.017L346.614 125.477C346.277 124.828 345.94 124.666 345.772 124.017L346.108 123.53C345.603 122.395 345.772 124.828 345.266 124.017C345.266 124.504 345.772 125.477 345.772 125.963C347.624 124.828 349.813 126.936 351.665 124.99C351.497 124.828 351.497 124.666 351.497 124.341C351.834 124.666 352.17 124.179 352.17 124.99V125.152C352.676 124.666 353.518 126.45 353.686 126.45C353.686 125.477 354.865 126.612 354.191 124.99L354.696 125.963C354.696 125.314 354.36 124.504 354.528 124.179C354.865 124.179 355.033 124.99 354.865 125.477C356.38 125.801 357.896 125.152 359.074 124.341L358.906 125.152C359.411 125.477 359.748 123.53 360.085 125.477C360.59 124.503 362.105 125.477 361.432 123.368C362.442 125.314 363.284 123.693 364.126 123.044C363.284 121.422 364.631 122.233 364.631 121.422C365.305 122.72 364.463 123.044 364.631 124.017C364.8 121.584 367.831 124.666 366.82 121.098C366.989 121.26 366.989 121.26 366.989 121.422C367.157 121.422 367.662 121.909 367.831 121.909C367.662 121.26 367.157 121.098 367.494 120.774C367.831 120.774 368.168 121.747 368.504 122.233C368.841 121.26 369.683 120.449 369.178 118.99C369.515 119.314 370.02 119.963 370.02 120.287C370.525 118.828 371.03 120.125 371.704 118.99C371.367 119.152 372.209 120.449 371.367 120.125C372.04 120.936 372.377 120.774 372.714 120.287C373.051 119.801 373.388 119.314 374.061 119.638L373.724 118.341C374.061 117.855 374.735 118.99 374.566 119.638C375.745 119.963 375.745 118.99 376.419 118.665C376.587 118.828 376.587 118.99 376.587 118.99L377.597 118.503C377.597 118.179 377.429 117.368 376.924 116.719C378.103 117.206 378.103 117.692 377.261 117.53Z" fill="#353737"/>
<path d="M367.157 114.936C367.325 115.26 367.494 115.26 367.662 115.422C367.494 115.26 367.325 115.098 367.157 114.936Z" fill="#353737"/>
<path d="M384.164 109.584C382.817 107.962 383.828 110.233 383.154 109.908C383.322 109.422 382.48 108.611 382.144 108.125C383.322 110.557 381.302 107.962 380.965 108.935C380.46 108.287 380.797 107.962 380.123 107.152C380.123 107.962 379.786 108.611 380.46 109.908C379.786 110.395 378.944 110.233 378.608 110.719C378.776 109.908 377.934 109.422 377.597 108.125C378.102 109.908 378.102 112.341 378.439 114.611C377.429 113.314 377.429 113.152 376.587 111.854C375.071 111.368 377.092 113.314 376.082 113.314H376.587C376.418 113.963 377.26 115.26 377.597 116.233L378.608 115.422C379.113 116.395 378.439 116.557 378.439 116.882C378.776 118.179 379.449 117.368 379.955 118.341C379.618 117.53 380.291 117.53 380.291 117.044L380.628 117.53C381.47 117.692 380.965 116.233 381.302 116.071C381.47 116.233 381.47 116.233 381.639 116.395C381.47 115.746 381.133 114.936 381.302 114.611L381.133 114.773C380.628 113.314 381.133 112.017 379.618 111.044L380.797 110.881C381.639 112.179 382.817 114.287 382.312 114.936L382.649 115.584C383.659 116.071 383.154 113.8 382.144 112.827C380.46 109.422 383.659 111.692 383.322 110.071C383.996 110.881 383.828 111.53 384.164 112.179C383.996 112.341 383.828 112.503 383.322 111.854C382.649 112.99 385.512 114.449 384.164 114.773C383.322 114.611 383.828 112.99 382.986 113.314L383.996 116.071C384.501 115.746 384.67 114.936 384.838 114.449C385.343 112.99 386.185 112.341 387.027 112.017C387.701 111.692 388.374 111.692 388.374 111.692L392.584 107.8L396.457 103.584C396.962 102.449 397.467 102.286 395.615 100.016C394.941 99.854 394.773 100.503 394.099 99.5296C394.773 100.34 394.941 100.989 394.436 101.313C393.594 100.665 394.436 100.665 394.099 100.503H393.931C393.594 100.016 393.426 99.6918 393.594 99.6918C391.91 99.0431 391.405 100.016 392.416 101.8C391.237 101.476 391.574 100.34 391.068 99.6918C389.216 100.34 388.374 101.313 386.859 102.449C388.037 103.908 387.532 103.422 388.037 104.557L387.532 104.07C387.869 104.232 388.374 105.368 389.048 105.368C387.195 104.881 389.553 107.962 389.553 109.098L389.048 108.287C388.711 108.773 388.543 108.935 388.374 109.746C386.353 108.935 388.879 108.935 387.195 107.314V107.8C386.69 106.989 385.848 105.692 385.68 105.043C385.848 106.827 384.164 105.368 384.164 106.989C383.659 106.016 383.828 104.881 383.996 104.719C383.659 104.881 383.659 105.854 382.986 105.043L383.828 106.179C383.491 106.665 383.154 105.206 382.481 104.557C381.133 105.692 384.67 108.125 384.164 109.584Z" fill="#353737"/>
<path d="M370.862 116.395C371.03 116.395 371.198 116.395 371.198 116.071C371.03 116.071 371.03 116.233 370.862 116.395Z" fill="#353737"/>
<path d="M372.377 112.827C372.377 112.665 372.209 112.503 372.209 112.341C372.209 112.503 372.209 112.665 372.377 112.827Z" fill="#353737"/>
<path d="M371.704 111.206C372.04 111.692 371.872 111.854 372.209 112.503C372.04 112.017 372.546 111.692 371.704 111.206Z" fill="#353737"/>
<path d="M327.922 118.503C327.585 118.828 326.912 119.152 327.08 119.476C327.417 119.314 327.754 119.152 328.259 119.152C328.091 118.99 327.922 118.828 327.922 118.503Z" fill="#353737"/>
<path d="M329.101 120.125L329.606 120.774L330.28 118.99C329.606 118.99 329.606 120.287 329.101 120.125Z" fill="#353737"/>
<path d="M330.448 121.26L330.28 121.747C330.448 121.584 330.448 121.422 330.448 121.26Z" fill="#353737"/>
<path d="M330.616 120.611L330.953 119.314L330.111 120.125L330.28 120.449C330.28 120.936 330.448 121.098 330.448 121.26L330.785 120.449C330.785 120.611 330.616 120.774 330.616 120.611Z" fill="#353737"/>
<path d="M332.3 123.044C332.132 122.557 332.637 121.909 332.637 121.422C332.132 120.936 331.964 122.72 331.458 122.071C332.3 121.098 331.29 121.26 331.122 120.449C331.122 121.584 331.29 122.557 331.795 122.882L331.964 122.071C332.3 122.233 332.132 122.72 332.3 123.044Z" fill="#353737"/>
<path d="M335.331 121.422L334.826 122.557C334.826 121.909 334.153 121.909 334.153 120.774C333.816 120.936 333.816 121.422 333.647 121.747C333.479 121.098 333.479 120.611 333.142 121.422C334.153 122.395 333.816 122.557 334.658 123.044C334.658 123.368 334.489 123.206 334.321 123.206L334.826 123.855C335.163 122.395 335.836 122.233 335.331 121.422Z" fill="#353737"/>
<path d="M336.173 122.233C335.668 122.233 335.331 123.368 335.5 124.179L336.51 123.206C336.342 123.368 336.005 123.53 336.173 122.233Z" fill="#353737"/>
<path d="M336.847 122.395C337.015 123.044 337.352 124.341 337.689 123.206C337.184 123.368 337.52 121.422 336.847 122.395Z" fill="#353737"/>
<path d="M340.383 123.53L339.373 122.72C339.204 121.098 339.878 122.233 340.046 121.584C339.204 121.26 339.541 121.747 338.868 122.72C338.699 122.557 338.362 123.368 338.026 123.855C339.373 122.557 339.373 126.449 340.383 123.53Z" fill="#353737"/>
<path d="M338.531 121.909L338.363 122.557L338.868 122.071L338.531 121.909Z" fill="#353737"/>
<path d="M342.741 125.152C343.414 126.936 343.751 124.017 344.593 124.828C344.593 124.99 344.593 125.152 344.424 125.314L344.93 125.152V125.639C344.761 124.503 345.266 124.017 345.435 123.206C344.761 122.071 345.266 124.666 344.593 123.368C344.593 122.882 344.761 122.071 344.761 121.584C344.424 122.233 344.424 122.882 344.424 123.53C344.088 123.693 344.088 123.044 344.088 122.557C343.751 123.206 343.919 124.828 343.246 124.503C342.74 123.53 343.414 122.882 342.741 123.368C343.246 125.152 342.067 123.044 341.899 124.341C341.393 124.017 341.057 122.882 341.057 122.233C341.057 123.693 340.72 124.828 340.383 125.152L341.225 124.017L341.562 125.639C341.899 124.828 342.235 124.828 342.741 125.152Z" fill="#353737"/>
<path d="M344.929 121.422C344.929 121.26 345.098 121.26 345.098 121.098C345.098 121.098 344.929 121.26 344.929 121.422Z" fill="#353737"/>
<path d="M340.888 121.585L341.057 121.26L340.888 120.936V121.585Z" fill="#353737"/>
<path d="M345.266 120.287C345.098 120.287 345.098 120.774 345.266 120.774L345.435 119.963L345.266 120.287Z" fill="#353737"/>
<path d="M345.94 121.26L346.277 122.071V121.422L345.94 121.26Z" fill="#353737"/>
<path d="M357.39 120.125C356.885 119.638 357.222 120.774 357.39 121.584C357.896 121.747 357.054 120.611 357.39 120.125Z" fill="#353737"/>
<path d="M363.789 116.719C363.116 116.233 363.116 117.368 362.779 117.368C363.284 117.855 363.621 117.368 363.789 116.719Z" fill="#353737"/>
<path d="M365.136 112.179C365.136 112.503 365.136 112.827 365.473 112.827L365.978 114.773C366.652 115.26 365.473 112.99 365.136 112.179Z" fill="#353737"/>
<path d="M367.999 110.719L367.831 111.53H368.167C368.336 112.341 368.504 112.665 368.504 113.314C368.673 112.827 368.673 112.016 367.999 110.719Z" fill="#353737"/>
<path d="M368.168 113.963L368.336 113.8C368.168 113.476 367.999 113.314 368.168 113.963Z" fill="#353737"/>
<path d="M368.504 113.638C368.504 113.476 368.504 113.476 368.504 113.476C368.504 113.638 368.336 113.8 368.336 113.8C368.504 113.8 368.504 113.963 368.504 113.638Z" fill="#353737"/>
<path d="M368.841 111.53C369.178 111.368 369.346 111.206 369.515 110.881L369.009 110.719C369.515 111.854 368.336 110.233 368.841 111.53Z" fill="#353737"/>
<path d="M373.556 110.233L374.23 111.206C374.903 111.206 374.229 108.611 375.577 110.071C374.903 109.584 375.24 108.611 374.566 108.773C374.903 109.746 374.061 110.233 373.556 110.233Z" fill="#353737"/>
<path d="M376.419 110.719C376.587 111.044 376.755 111.206 377.092 111.368C377.429 111.368 377.26 110.719 376.924 110.395C377.597 111.854 376.082 109.746 376.419 110.719Z" fill="#353737"/>
<path d="M378.776 109.098C378.607 109.26 378.439 109.422 378.944 109.584C379.281 109.26 378.439 108.125 378.271 107.314C377.429 106.989 378.102 108.611 378.776 109.098Z" fill="#353737"/>
<path d="M387.701 113.8C387.027 112.99 386.69 113.476 386.859 113.8C386.859 113.638 387.364 113.638 387.701 113.8Z" fill="#353737"/>
<path d="M382.481 106.989L382.312 106.827L383.154 108.124L382.481 106.989Z" fill="#353737"/>
<path d="M384.501 104.395L384.165 103.26L383.828 103.746L384.501 104.395Z" fill="#353737"/>
<path d="M385.175 104.232L385.512 103.908L385.175 103.746C384.67 103.422 385.343 104.07 385.175 104.232Z" fill="#353737"/>
<path d="M386.353 103.097C386.353 103.26 386.185 103.097 386.017 102.935V103.746L386.353 103.097Z" fill="#353737"/>
<path d="M397.299 101.962C397.972 102.773 397.804 101.962 398.141 101.962C397.972 101.8 396.794 100.989 397.299 101.962Z" fill="#353737"/>
</g>
<path d="M262.587 77.1505C246.085 91.2591 241.707 95.9619 219.479 90.6104C197.252 85.421 195.736 92.2321 178.392 85.5832C161.048 79.0965 165.089 69.2042 165.089 69.2042C167.783 67.4204 170.478 65.7987 172.498 64.5014C181.591 59.6363 175.866 61.9067 176.708 57.6903C177.382 53.474 196.241 50.7171 196.241 50.7171C196.241 50.7171 193.547 48.6089 198.094 44.5547C202.64 40.5005 220.321 41.7979 220.321 41.7979C220.321 41.7979 216.953 39.5275 220.321 37.2572C223.689 34.9868 238.844 34.6625 247.263 39.041C255.514 43.4195 264.776 43.4195 264.776 43.4195C264.776 43.4195 266.965 43.906 270.838 44.5547C276.732 55.7443 272.353 68.7177 262.587 77.1505Z" fill="#D4DADD"/>
<path d="M268.144 287.644C268.144 287.644 271.848 285.698 270.838 279.212C269.828 272.725 261.071 268.184 248.61 264.941C236.15 261.535 222.678 264.13 219.311 267.86" stroke="#1B1C1E" stroke-miterlimit="10"/>
<path d="M261.072 287.644C261.072 287.644 263.766 281.158 259.219 277.59" stroke="#1B1C1E" stroke-miterlimit="10"/>
<path d="M249.452 287.644C249.452 287.644 251.136 281.968 246.758 279.374" stroke="#1B1C1E" stroke-miterlimit="10"/>
<path d="M308.557 286.834C308.557 286.834 310.41 278.725 304.516 274.347" stroke="#1B1C1E" stroke-miterlimit="10"/>
<path d="M295.76 287.158C295.76 287.158 295.591 282.455 290.371 279.374" stroke="#1B1C1E" stroke-miterlimit="10"/>
<path d="M304.516 226.183C304.516 226.183 304.347 222.615 304.516 220.02C304.684 217.426 304.684 215.804 302.832 211.101C300.98 206.398 300.98 202.831 300.98 202.831" stroke="#1B1C1E" stroke-miterlimit="10"/>
<path d="M236.318 161.964C234.129 163.748 232.95 165.532 231.603 172.019C230.256 178.505 231.435 182.235 239.012 184.992C246.59 187.749 252.989 178.83 251.641 173.478C250.294 168.127 244.738 154.991 236.318 161.964Z" fill="#D4DADD"/>
<path d="M174.182 126.936C170.477 129.044 165.257 133.261 165.257 141.531C165.257 149.802 163.068 158.721 171.488 165.532C179.907 172.343 192.031 175.749 202.303 172.829C212.575 169.91 213.922 162.451 220.153 156.126C226.383 149.802 227.73 138.612 220.153 130.017C212.575 121.422 204.492 120.449 195.231 120.936C185.969 121.422 178.897 124.179 174.182 126.936Z" fill="#B3B9BC"/>
<path d="M297.107 14.8779C297.107 14.8779 280.605 1.90452 265.955 2.87753C251.305 3.85053 267.639 30.4461 267.639 30.4461C267.639 30.4461 255.851 36.6084 255.515 41.3113C255.178 46.0142 261.408 43.5817 262.25 45.5277C262.924 47.4737 255.851 51.8522 253.831 57.0416C251.642 62.231 256.862 63.6905 256.862 64.6635C256.862 65.6365 249.789 75.3666 252.147 82.1776C254.504 88.9887 260.061 83.4749 260.735 85.7453C261.408 88.0156 260.229 96.7727 264.102 99.0431C268.144 101.313 270.501 97.2592 271.175 99.0431C271.848 100.827 274.374 108.935 278.247 110.557C281.952 112.179 283.299 108.124 283.467 108.935C283.636 109.746 286.835 116.071 290.203 116.719C293.571 117.368 296.097 114.449 297.107 115.26C298.117 116.071 314.114 122.395 326.744 123.53C339.373 124.666 353.686 114.287 357.559 114.611C361.6 114.936 362.105 117.368 366.147 117.368C370.357 117.368 372.714 110.071 374.903 110.719C377.092 111.368 380.965 111.043 384.165 104.881C387.196 98.5566 387.196 95.3132 389.553 96.4484C391.91 97.4214 394.268 94.178 394.942 89.313C395.615 84.448 394.942 81.0424 394.942 81.0424C394.942 81.0424 398.646 81.8533 400.162 78.6099C401.677 75.3666 398.478 64.177 398.478 64.177C398.478 64.177 402.351 63.3661 400.498 56.5551C398.646 49.744 395.278 42.7708 395.278 42.7708C395.278 42.7708 398.814 41.7978 397.299 36.4463C395.783 31.0947 386.185 24.1215 386.185 24.1215C386.185 24.1215 394.436 10.4994 389.216 2.55318C383.996 -5.23088 363.116 6.76955 356.212 12.1211C356.212 12.1211 354.696 7.41823 351.497 7.74256C348.297 8.0669 346.614 10.6616 346.277 9.36424C345.94 7.90473 344.256 5.31004 341.225 5.31004C338.531 5.31004 336.51 7.74256 336.51 7.74256C336.51 7.74256 334.658 2.55319 331.122 2.22885C325.733 1.74235 323.039 7.25605 323.039 7.25605C323.039 7.25605 317.65 2.87752 313.609 4.33703C309.568 5.79654 308.894 9.85074 308.894 9.85074C308.894 9.85074 306.2 4.66137 302.327 5.63437C298.791 6.93172 297.949 11.7967 297.107 14.8779Z" fill="#F6EBEF"/>
<path d="M327.08 67.0959C327.08 67.0959 320.682 63.6904 320.682 60.1227C320.682 56.555 323.544 56.7172 327.754 56.7172C331.964 56.7172 334.321 57.528 333.479 61.42C332.806 64.0147 327.08 67.0959 327.08 67.0959Z" fill="#1B1C1E" stroke="#1B1C1E" stroke-miterlimit="10"/>
<path d="M333.311 83.4749C325.902 86.0696 322.029 83.4749 322.029 83.4749C326.743 77.9612 327.08 70.015 327.08 67.7446C327.249 70.015 327.922 77.3125 333.311 83.4749Z" fill="#B3B9BC" stroke="#1B1C1E" stroke-miterlimit="10"/>
<path d="M333.311 83.475C334.153 84.448 335.163 85.5832 336.342 86.394C345.94 94.1781 356.212 92.232 360.085 87.2048" stroke="#1B1C1E" stroke-miterlimit="10"/>
<path d="M327.08 67.0961C327.08 67.0961 327.08 67.2583 327.08 67.7448" stroke="#1B1C1E" stroke-miterlimit="10"/>
<path d="M295.76 85.7452C298.791 91.4211 311.925 92.0698 319.839 85.7452C320.681 85.0966 321.355 84.4479 322.029 83.6371" stroke="#1B1C1E" stroke-miterlimit="10"/>
<path d="M289.192 53.9604C289.192 53.9604 291.718 44.3925 301.485 44.3925C311.925 44.3925 314.114 51.5279 314.114 51.5279C314.114 51.5279 312.093 59.9606 303.169 60.9336C294.076 61.9066 289.192 53.9604 289.192 53.9604Z" fill="#CCE2CF" stroke="#1B1C1E" stroke-miterlimit="10"/>
<path d="M302.353 59.15C305.047 59.0265 307.077 55.8078 306.887 51.9608C306.697 48.1138 304.359 45.0954 301.665 45.2189C298.971 45.3424 296.941 48.5611 297.131 52.4081C297.321 56.255 299.659 59.2735 302.353 59.15Z" fill="#1B1C1E"/>
<path d="M364.126 52.0145C364.126 52.0145 361.6 42.4465 351.834 42.4465C341.394 42.4465 339.204 49.5819 339.204 49.5819C339.204 49.5819 341.225 58.0146 350.15 58.9877C359.074 59.9607 364.126 52.0145 364.126 52.0145Z" fill="#CCE2CF" stroke="#1B1C1E" stroke-miterlimit="10"/>
<path d="M356.077 50.2837C356.267 46.4367 354.238 43.218 351.544 43.0945C348.85 42.971 346.512 45.9895 346.321 49.8364C346.131 53.6834 348.161 56.9021 350.855 57.0256C353.549 57.1491 355.887 54.1306 356.077 50.2837Z" fill="#1B1C1E"/>
<path d="M348.803 30.446C338.531 37.4193 321.523 38.7166 309.063 32.2299C296.602 25.7432 297.107 14.7158 297.107 14.7158C297.949 11.6346 298.791 6.76953 302.664 5.79652C306.368 4.82351 309.231 10.0129 309.231 10.0129C309.231 10.0129 309.904 5.79653 313.946 4.49918C317.987 3.03967 323.376 7.4182 323.376 7.4182C323.376 7.4182 326.07 1.90449 331.458 2.391C334.995 2.71533 336.847 7.90471 336.847 7.90471C336.847 7.90471 338.868 5.47219 341.562 5.47219C344.593 5.47219 346.277 8.06687 346.614 9.52639C346.95 10.9859 348.634 8.22904 351.834 7.90471C355.033 7.58037 356.549 12.2832 356.549 12.2832C356.549 12.2832 359.074 23.4728 348.803 30.446Z" fill="#D4DADD"/>
<path d="M246.758 258.778C246.758 256.184 244.232 254.4 242.885 249.211C241.538 244.021 233.624 239.805 232.95 235.913C232.108 232.021 236.655 228.129 232.95 226.994C231.603 226.669 230.256 226.345 229.077 225.534C229.077 225.534 234.803 219.858 245.243 223.426C255.683 226.831 261.577 238.994 262.418 244.67C263.26 250.346 260.735 261.86 246.758 258.778Z" fill="#B3B9BC"/>
<path d="M251.641 265.59C251.641 265.59 246.758 261.373 246.758 258.779C246.758 256.184 244.401 254.4 243.054 249.211C241.706 244.021 233.792 239.805 233.119 235.913C232.277 232.021 236.823 228.129 233.119 226.994C229.414 225.858 225.541 225.21 226.551 216.777" stroke="#1B1C1E" stroke-miterlimit="10"/>
<path d="M386.353 24.2837C379.955 20.0673 373.051 18.77 370.525 18.4457C367.999 18.1213 365.978 17.9592 372.714 9.85076C379.449 1.74237 388.374 1.5802 388.374 1.5802C388.711 1.90454 389.048 2.22887 389.385 2.71537C394.605 10.6616 386.353 24.2837 386.353 24.2837Z" fill="#D4DADD"/>
<path d="M286.33 22.662C286.667 25.581 279.089 21.8512 275.048 25.9054C271.006 29.9596 267.639 30.4461 267.639 30.4461C267.639 30.4461 259.556 17.1483 259.893 9.03992C259.893 9.03992 260.229 5.31006 268.649 9.03992C277.068 12.7698 285.993 19.5808 286.33 22.662Z" fill="#D4DADD"/>
<path d="M317.145 286.671C318.997 286.671 320.345 277.103 317.145 270.779C313.946 264.454 313.609 257.805 309.231 252.292C304.853 246.778 307.042 233.967 305.19 229.913C304.179 227.48 304.348 226.345 304.348 226.345" stroke="#1B1C1E" stroke-miterlimit="10"/>
</svg>
