<svg width="152" height="149" viewBox="0 0 152 149" fill="none" xmlns="http://www.w3.org/2000/svg">
<path opacity="0.57" d="M130.721 32.2235L31.2576 5.80566L0 119.165L112.311 149L140.103 48.2483L130.721 32.2235Z" fill="#F7EDE2"/>
<path d="M113.048 35.3069L109.563 34.3814C107.483 33.8292 105.341 35.0361 104.778 37.0769L99.1321 57.554C98.5693 59.5949 99.7991 61.697 101.879 62.2492L105.365 63.1747C107.444 63.7269 109.586 62.5201 110.149 60.4792L115.795 40.0021C116.358 37.9612 115.128 35.8591 113.048 35.3069Z" fill="#F5CAC3"/>
<path d="M110.464 82.8513L36.4233 63.3765L19.6161 124.908L93.6566 144.383L110.464 82.8513Z" fill="#FBDC8E"/>
<path d="M142.263 26.8134L42.7998 0.395508L11.5422 113.771L123.87 143.59L151.645 42.8381L142.263 26.8134Z" stroke="#746C6C" stroke-width="0.41" stroke-miterlimit="10"/>
<path d="M62.1298 5.52515L135.811 25.0883L127.079 56.7583C126.716 58.0745 125.835 59.1953 124.63 59.8742C123.425 60.5531 121.994 60.7344 120.653 60.3783L57.0865 43.5007C55.7452 43.1446 54.603 42.2802 53.9112 41.0976C53.2194 39.9151 53.0346 38.5114 53.3976 37.1952L62.1298 5.52515Z" stroke="#746C6C" stroke-width="0.41" stroke-miterlimit="10"/>
<path d="M121.525 25.9715L118.04 25.046C115.96 24.4938 113.818 25.7006 113.255 27.7415L107.609 48.2186C107.046 50.2595 108.276 52.3616 110.356 52.9138L113.841 53.8393C115.921 54.3915 118.063 53.1846 118.626 51.1438L124.272 30.6667C124.835 28.6258 123.605 26.5237 121.525 25.9715Z" stroke="#746C6C" stroke-width="0.41" stroke-miterlimit="10"/>
<path d="M121.427 77.2201L47.7463 57.657L30.8629 118.89L104.544 138.453L121.427 77.2201Z" stroke="#746C6C" stroke-width="0.41" stroke-miterlimit="10"/>
</svg>
