<svg width="472" height="207" viewBox="0 0 472 207" fill="none" xmlns="http://www.w3.org/2000/svg">
<g clip-path="url(#clip0_19_14)">
<path d="M258.73 122.89C258.73 122.89 275.65 109.02 277.73 109.02C279.81 109.02 352.94 167.08 364.6 182.17C370.09 181.49 383.35 177.6 383.35 177.6C383.35 177.6 300.11 62.83 290.05 62.83C279.99 62.83 199.75 95.76 199.75 95.76L206.38 119.3L258.73 122.89Z" fill="#FBDC8E"/>
<path d="M61.9401 61.77C70.4342 61.77 77.3201 54.8842 77.3201 46.39C77.3201 37.8959 70.4342 31.01 61.9401 31.01C53.4459 31.01 46.5601 37.8959 46.5601 46.39C46.5601 54.8842 53.4459 61.77 61.9401 61.77Z" fill="#F8CDBA"/>
<path d="M119 89.35C121.49 92.05 142.67 121.54 142.47 125.28C142.27 129.02 122.32 182.59 120.66 184.67C122.95 186.95 132.29 192.56 134.58 192.56C136.87 192.56 193.14 122.37 193.14 117.56C193.14 112.75 158.33 57.28 138.25 55.86" fill="#F59D9B"/>
<path d="M33.3199 28.73C33.3199 15.57 44.4899 10.91 50.5099 10.91C62.3799 10.91 80.1199 16.31 93.16 16.31C115.3 16.31 128.65 0 142.21 0C163.82 0 175.41 14.45 181.1 18.44C192.6 26.5 231.79 32.26 231.79 60.09C231.79 85.58 219.55 99.38 204.58 99.38C189.61 99.38 112.87 72.19 112.87 72.19C112.87 72.19 88.2699 62.59 86.6099 60.5C84.9499 58.41 74.4399 53.3 74.9999 37.22C72.2999 35.31 57.9399 41.64 49.7799 36.94C47.981 39.4915 46.8844 42.4711 46.5999 45.58C44.6199 45.65 33.3199 42.47 33.3199 28.73Z" fill="#722C2B"/>
<path d="M44.24 97.07C53.24 67.19 113.77 52.74 132.55 53.07C151.33 53.4 141.72 74.66 202.87 91.38C209.24 99.38 214.34 145.2 208.6 158.9H40.14C40.14 158.9 39.1 106.25 44.24 97.07Z" fill="#F59D9B"/>
<path d="M90.92 66C93 68.61 84.11 75.59 82.08 73L67.42 54.58L76.27 47.58L90.92 66Z" fill="#F8CDBA"/>
<path d="M366.59 180.45C367 181.87 369.03 190.34 370.64 191.39C373.56 193.29 390.87 187 391.46 185.93C392.05 184.86 392.04 182.99 391.16 182.71C390.28 182.43 382.84 183.04 381.7 182.65C380.56 182.26 378.22 179.15 378.17 177.12" fill="#3E6598"/>
<path d="M458.41 143.66C459.89 143.66 468.57 142.97 470.06 144.18C472.76 146.38 472.06 164.79 471.2 165.68C470.34 166.57 468.57 167.13 468.03 166.37C467.49 165.61 465.82 158.37 465.1 157.37C464.38 156.37 460.71 155.13 458.76 155.7" fill="#3E6598"/>
<path d="M49.2917 56.337C50.8462 55.3645 51.6956 53.9195 51.1888 53.1095C50.6821 52.2995 49.0111 52.4312 47.4567 53.4037C45.9022 54.3761 45.0529 55.8211 45.5596 56.6311C46.0664 57.4411 47.7373 57.3094 49.2917 56.337Z" fill="#FA9E9F"/>
<path d="M66.9646 45.2838C68.5191 44.3113 69.3684 42.8664 68.8617 42.0564C68.3549 41.2464 66.684 41.3781 65.1295 42.3505C63.5751 43.323 62.7257 44.768 63.2325 45.578C63.7392 46.388 65.4101 46.2563 66.9646 45.2838Z" fill="#FA9E9F"/>
<path d="M53.33 47.55C53.27 48.63 52.54 53.47 56.19 52.96" stroke="#1F161E" stroke-width="0.69" stroke-miterlimit="10" stroke-linecap="round"/>
<path d="M64.16 53.09C64.99 52.54 65.65 50.7 65.75 49.32" stroke="#1F161E" stroke-width="0.69" stroke-miterlimit="10" stroke-linecap="round"/>
<path d="M73.95 41.32C76.1813 41.32 77.99 39.5112 77.99 37.28C77.99 35.0488 76.1813 33.24 73.95 33.24C71.7188 33.24 69.91 35.0488 69.91 37.28C69.91 39.5112 71.7188 41.32 73.95 41.32Z" fill="#F8CDBA"/>
<path d="M27.44 163.19C23.84 158.47 23 147.36 23 139.63C25.58 114.76 32 93.1 45.19 70C46.79 67.53 52.93 68.32 54.07 70C57.84 85.47 65 135.12 43.68 163.6C38.38 163.6 31.9 163.19 27.44 163.19Z" fill="#F59D9B"/>
<path d="M50.16 72.03C54.1419 72.03 57.3699 68.802 57.3699 64.82C57.3699 60.838 54.1419 57.61 50.16 57.61C46.178 57.61 42.95 60.838 42.95 64.82C42.95 68.802 46.178 72.03 50.16 72.03Z" fill="#F8CDBA"/>
<path d="M123.54 205.01C129.543 205.01 134.41 200.143 134.41 194.14C134.41 188.137 129.543 183.27 123.54 183.27C117.537 183.27 112.67 188.137 112.67 194.14C112.67 200.143 117.537 205.01 123.54 205.01Z" fill="#F8CDBA"/>
<path d="M163.12 158.91C178.01 140.16 193.12 120.07 193.12 117.59C193.12 115.28 184.96 101.07 174.26 86.87" stroke="#746C6C" stroke-linecap="round" stroke-linejoin="round"/>
<path d="M119 89.35C121.49 92.05 142.67 121.54 142.47 125.28C142.36 127.28 136.47 143.81 130.88 158.92" stroke="#746C6C" stroke-linecap="round" stroke-linejoin="round"/>
<path d="M58.2899 106C58.5299 123.56 56.0599 143.55 46.8199 158.92" stroke="#746C6C" stroke-linecap="round" stroke-linejoin="round"/>
<path d="M209.48 116C214.06 116.12 459.65 142.41 459.65 142.41V156.51L208.65 158.88" fill="#FBDC8E"/>
</g>
<g clip-path="url(#clip1_19_14)">
<path d="M12.7839 207H86.8374L73.4212 149.758C73.0872 148.376 72.4012 147.165 71.4661 146.307C70.5309 145.45 69.3969 144.991 68.234 145H5.39531C4.57047 144.986 3.75426 145.21 3.01148 145.655C2.26871 146.101 1.61982 146.755 1.11633 147.566C0.612831 148.376 0.2686 149.322 0.110947 150.326C-0.0467072 151.331 -0.0134354 152.368 0.208122 153.354L12.7839 207Z" fill="#746C6C"/>
<path d="M40.721 181.622C38.2188 181.622 36.1903 179.105 36.1903 176C36.1903 172.895 38.2188 170.378 40.721 170.378C43.2233 170.378 45.2518 172.895 45.2518 176C45.2518 179.105 43.2233 181.622 40.721 181.622Z" fill="white"/>
<path d="M78.04 202.987H130V207.01H78.04V202.987Z" fill="#746C6C"/>
</g>
<defs>
<clipPath id="clip0_19_14">
<rect width="448.96" height="205" fill="white" transform="translate(23)"/>
</clipPath>
<clipPath id="clip1_19_14">
<rect width="130" height="62" fill="white" transform="matrix(-1 0 0 1 130 145)"/>
</clipPath>
</defs>
</svg>
