<svg width="145" height="424" viewBox="0 0 145 424" fill="none" xmlns="http://www.w3.org/2000/svg">
<g clip-path="url(#clip0_45_143)">
<path d="M44.0404 408.235C43.8622 409.762 42.42 418.661 43.4211 420.328C45.2197 423.354 62.5101 424.543 63.4179 423.766C64.3256 422.988 65.0298 421.209 64.3681 420.572C63.7063 419.935 57.0718 417.443 56.2319 416.6C55.392 415.757 54.5351 411.823 55.2732 409.865" fill="#1d3557"/>
<path d="M124.409 396.452C124.231 397.969 122.797 406.877 123.79 408.545C125.589 411.561 142.879 412.75 143.787 411.982C144.695 411.214 145.399 409.425 144.737 408.788C144.075 408.151 137.441 405.65 136.601 404.807C135.761 403.964 134.904 400.03 135.642 398.082" fill="#1d3557"/>
<path d="M96.1406 163.202C97.4047 167.399 118.004 293.517 119.302 300.355C120.6 307.193 140.376 393.173 138.662 396.021C136.949 398.868 124.893 402.671 121.881 400.77C118.869 398.868 66.3787 269.631 62.4931 253.519C58.6074 237.408 62.4931 153.151 62.4931 153.151L96.1406 163.202Z" fill="#FBDC8E"/>
<path d="M80.4282 164.139C79.6307 171.043 67.5495 284.862 63.9947 302.846C60.4399 320.831 63.6978 407.758 61.0677 409.116C57.6741 412.207 40.0444 412.207 40.0444 412.207C36.8459 409.116 25.5368 172.579 25.5368 172.579C25.5368 172.579 53.6358 144.721 80.4282 164.139Z" fill="#FBDC8E"/>
<path d="M70.0524 72.3794C70.0524 74.8149 57.8863 74.9554 57.8948 72.3794V56.062H70.0524V72.3794Z" fill="#F8CDBA"/>
<path d="M57.9118 65.7662C57.9118 64.3143 61.9077 58.1134 64.2239 58.9564C61.3648 57.8323 58.9892 55.2096 57.9372 56.0245L57.9118 65.7662Z" fill="#722C2B"/>
<path d="M69.7044 62.497C60.9846 62.497 53.9157 54.6924 53.9157 45.0649C53.9157 35.4374 60.9846 27.6328 69.7044 27.6328C78.4243 27.6328 85.4932 35.4374 85.4932 45.0649C85.4932 54.6924 78.4243 62.497 69.7044 62.497Z" fill="#F8CDBA"/>
<path d="M84.57 52.0956C83.1274 51.9347 82.0194 51.1317 82.0953 50.302C82.1712 49.4723 83.4022 48.9301 84.8449 49.091C86.2875 49.2519 87.3955 50.0549 87.3196 50.8846C87.2437 51.7143 86.0127 52.2565 84.57 52.0956Z" fill="#FA9E9F"/>
<path d="M67.6575 50.2182C66.2081 50.052 65.0967 49.2415 65.1751 48.4079C65.2535 47.5743 66.4921 47.0333 67.9415 47.1995C69.3909 47.3657 70.5023 48.1762 70.4239 49.0098C70.3455 49.8434 69.1069 50.3844 67.6575 50.2182Z" fill="#FA9E9F"/>
<path d="M78.1631 46.7417C78.5873 47.566 80.7931 51.0974 78.0188 52.109" stroke="#1F161E" stroke-width="0.69" stroke-miterlimit="10" stroke-linecap="round"/>
<path d="M72.377 55.2657C71.5964 55.1533 70.4765 53.9637 69.9251 52.9146" stroke="#1F161E" stroke-width="0.69" stroke-miterlimit="10" stroke-linecap="round"/>
<path d="M56.9361 46.7418C55.015 46.7418 53.4577 45.0223 53.4577 42.9013C53.4577 40.7802 55.015 39.0608 56.9361 39.0608C58.8572 39.0608 60.4146 40.7802 60.4146 42.9013C60.4146 45.0223 58.8572 46.7418 56.9361 46.7418Z" fill="#F8CDBA"/>
<path d="M59.3116 46.2921C59.3116 51.3972 54.2212 54.7225 52.4735 54.7225C52.1958 54.7641 51.9131 54.7377 51.6457 54.6451C51.3783 54.5526 51.1325 54.3961 50.926 54.1869C50.7195 53.9777 50.5573 53.7208 50.4508 53.4345C50.3444 53.1483 50.2963 52.8396 50.3101 52.5306C50.3101 50.3949 51.4554 48.5589 53.8479 46.2453C53.4322 45.4491 50.3101 41.2433 50.3101 35.3139C50.3101 29.038 53.797 23.7831 56.1301 23.7831C57.1285 23.8568 58.0765 24.294 58.8257 25.0263C59.5749 25.7585 60.0829 26.7444 60.2703 27.8296C60.2703 19.0621 68.7543 12.7861 73.8447 12.7861C78.5618 12.7861 79.3678 15.053 79.3678 16.8983C79.3678 20.9261 76.4917 25.2443 75.4057 26.2653C78.0443 24.1203 82.1929 21.9565 85.7308 21.9565C87.9705 21.9565 90.8212 22.659 90.8212 26.0686C90.8212 32.3165 85.5187 35.9321 83.7455 36.9438C83.0696 35.4864 82.2129 34.1402 81.2003 32.944C81.5227 34.1243 80.2162 36.2694 77.7134 36.7564C76.2796 37.103 59.3116 34.5739 59.3116 46.2921Z" fill="#432322"/>
<path d="M103.03 19.2962C105.796 18.3195 108.51 17.1686 111.157 15.8491C112.337 15.081 107.272 5.6671 104.922 2.94129C102.571 0.215474 97.7186 -1.18022 95.1819 1.25522C92.6452 3.69065 94.2147 9.68557 103.03 19.2962Z" fill="#F8CDBA"/>
<path d="M33.6559 70.7587C18.1048 80.5567 -7.62939e-05 138.848 -7.62939e-05 143.316C-7.62939e-05 147.784 33.0875 214.684 35.0728 214.684C36.7696 212.688 43.9555 203.237 43.9555 203.237C42.1569 200.193 30.3811 170.911 29.9654 169.684C32.833 170.209 93.29 172.41 98.3804 169.947C103.471 167.483 101.486 104.162 102.834 102.054C104.183 99.9465 140.3 97.0052 144.754 89.446C142.921 52.1089 113.499 16.2893 111.344 15.3245C109.189 14.3597 102.198 16.9918 101.884 18.7341C102.733 21.1883 118.666 67.1243 117.232 69.3162C109.757 68.4638 40.1377 66.6653 33.6559 70.7587Z" fill="#F59D9B"/>
<path d="M41.7073 110.85C40.2395 113.735 25.3756 141.677 25.5368 144.019C25.698 146.36 27.6663 162.547 29.9654 169.638" stroke="#1F161E" stroke-width="0.55" stroke-miterlimit="10" stroke-linecap="round"/>
<path d="M102.58 102.551C102.789 97.1403 102.53 91.7204 101.808 86.3643" stroke="#1F161E" stroke-width="0.55" stroke-miterlimit="10" stroke-linecap="round"/>
</g>
<defs>
<clipPath id="clip0_45_143">
<rect width="145" height="424" fill="white" transform="matrix(-1 0 0 1 145 0)"/>
</clipPath>
</defs>
</svg>
