<svg width="77" height="204" viewBox="0 0 77 204" fill="none" xmlns="http://www.w3.org/2000/svg">
<g clip-path="url(#clip0_209_2)">
<path d="M44.63 138.96C44.63 135.464 41.7959 132.63 38.3 132.63C34.804 132.63 31.97 135.464 31.97 138.96V160.81C31.97 164.306 34.804 167.14 38.3 167.14C41.7959 167.14 44.63 164.306 44.63 160.81V138.96Z" fill="#F7EDE2"/>
<path d="M38.3001 203.87C45.3141 203.87 51.0001 198.184 51.0001 191.17C51.0001 184.156 45.3141 178.47 38.3001 178.47C31.2861 178.47 25.6001 184.156 25.6001 191.17C25.6001 198.184 31.2861 203.87 38.3001 203.87Z" fill="#FBDC8E"/>
<path d="M38.3 152.88C33.2708 152.879 28.2907 153.868 23.644 155.792C18.9973 157.715 14.775 160.536 11.2184 164.091C7.6618 167.647 4.84049 171.869 2.91561 176.515C0.990731 181.161 -1.71512e-07 186.141 0 191.17H76.59C76.59 186.142 75.5996 181.163 73.6753 176.517C71.7511 171.871 68.9307 167.65 65.3751 164.095C61.8196 160.539 57.5985 157.719 52.9529 155.795C48.3074 153.87 43.3283 152.88 38.3 152.88Z" fill="#4A4E69"/>
<path d="M38.3 139.92V1" stroke="#F7EDE2" stroke-width="2" stroke-linecap="round" stroke-linejoin="round"/>
<path d="M29.25 172C29.25 167.164 33.168 163.25 37.9922 163.25C38.4359 163.25 39.1523 163.315 39.5898 163.396C39.9655 163.466 40.0488 163.968 39.7179 164.156C37.5703 165.379 36.25 167.648 36.25 170.117C36.25 174.402 40.1449 177.656 44.3867 176.848C44.7602 176.777 45.0227 177.212 44.7816 177.51C43.1523 179.523 40.6875 180.75 37.9922 180.75C33.1602 180.75 29.25 176.828 29.25 172Z" fill="#F7EDE2"/>
</g>
<defs>
<clipPath id="clip0_209_2">
<rect width="77" height="204" fill="white"/>
</clipPath>
</defs>
</svg>
