<svg width="77" height="204" viewBox="0 0 77 204" fill="none" xmlns="http://www.w3.org/2000/svg">
<g clip-path="url(#clip0_209_8)">
<path d="M44.63 138.96C44.63 135.464 41.7959 132.63 38.3 132.63C34.804 132.63 31.97 135.464 31.97 138.96V160.81C31.97 164.306 34.804 167.14 38.3 167.14C41.7959 167.14 44.63 164.306 44.63 160.81V138.96Z" fill="#9A8C98"/>
<path d="M38.3001 203.87C45.3141 203.87 51.0001 198.184 51.0001 191.17C51.0001 184.156 45.3141 178.47 38.3001 178.47C31.2861 178.47 25.6001 184.156 25.6001 191.17C25.6001 198.184 31.2861 203.87 38.3001 203.87Z" fill="#FBDC8E"/>
<path d="M38.3 152.88C33.2708 152.879 28.2907 153.868 23.644 155.792C18.9973 157.715 14.775 160.536 11.2184 164.091C7.6618 167.647 4.84049 171.869 2.91561 176.515C0.990731 181.161 -1.71512e-07 186.141 0 191.17H76.59C76.59 186.142 75.5996 181.163 73.6753 176.517C71.7511 171.871 68.9307 167.65 65.3751 164.095C61.8196 160.539 57.5985 157.719 52.9529 155.795C48.3074 153.87 43.3283 152.88 38.3 152.88Z" fill="#F7EDE2"/>
<path d="M38.3 139.92V1" stroke="#9A8C98" stroke-width="2" stroke-linecap="round" stroke-linejoin="round"/>
<g clip-path="url(#clip1_209_8)">
<path d="M39 168.215C36.9289 168.215 35.2852 169.894 35.2852 171.93C35.2852 173.966 36.8945 175.715 39 175.715C41.1055 175.715 42.7148 174.036 42.7148 172C42.7148 169.964 41.0703 168.215 39 168.215ZM48.8945 175.555L46.4258 171.965L48.8926 168.41C49.1399 168.053 48.9357 167.56 48.5088 167.483L44.2509 166.714L43.4814 162.456C43.4043 162.029 42.9115 161.825 42.5548 162.072L39 164.574L35.4102 162.107C35.0537 161.859 34.5609 162.064 34.4836 162.491L33.75 166.75L29.4906 167.519C29.0638 167.594 28.8595 168.09 29.1069 168.41L31.5738 172L29.107 175.555C28.8597 175.911 29.0639 176.404 29.4908 176.482L33.7486 177.251L34.5181 181.509C34.5953 181.936 35.088 182.14 35.4447 181.893L39 179.426L42.5551 181.893C42.9116 182.14 43.4047 181.936 43.4816 181.509L44.2512 177.251L48.509 176.482C48.9375 176.406 49.1406 175.91 48.8945 175.555ZM39 176.965C36.2387 176.965 34.0352 174.726 34.0352 172C34.0352 169.239 36.2738 167.035 39 167.035C41.7262 167.035 43.9648 169.273 43.9648 172C43.9648 174.762 41.7617 176.965 39 176.965Z" fill="#9A8C98"/>
</g>
</g>
<defs>
<clipPath id="clip0_209_8">
<rect width="77" height="204" fill="white"/>
</clipPath>
<clipPath id="clip1_209_8">
<rect width="20" height="20" fill="white" transform="translate(29 162)"/>
</clipPath>
</defs>
</svg>
