<svg width="250" height="425" viewBox="0 0 250 425" fill="none" xmlns="http://www.w3.org/2000/svg">
<g clip-path="url(#clip0_10_1168)">
<g opacity="0.76">
<path d="M198.512 192H144.416C115.98 192 92.9276 216.987 92.9276 247.81V369.19C92.9276 400.013 115.98 425 144.416 425H198.512C226.948 425 250 400.013 250 369.19V247.81C250 216.987 226.948 192 198.512 192Z" fill="#9A8C98"/>
</g>
<path d="M179.186 175.701C192.501 175.747 205.259 181.501 214.675 191.707C224.09 201.912 229.399 215.741 229.441 230.174V351.554C229.399 365.987 224.09 379.816 214.675 390.022C205.259 400.227 192.501 405.981 179.186 406.027H125.09C111.775 405.981 99.0171 400.227 89.6016 390.022C80.1861 379.816 74.8778 365.987 74.8355 351.554V230.174C74.8778 215.741 80.1861 201.912 89.6016 191.707C99.0171 181.501 111.775 175.747 125.09 175.701H179.186ZM179.186 174.364H125.09C96.7722 174.364 73.602 199.479 73.602 230.174V351.554C73.602 382.249 96.7722 407.364 125.09 407.364H179.186C207.504 407.364 230.674 382.249 230.674 351.554V230.174C230.674 199.479 207.504 174.364 179.186 174.364Z" fill="#9A8C98"/>
<path d="M152.138 174.364H125.09C96.7722 174.364 73.602 199.479 73.602 230.174V242.012H152.138V174.364Z" fill="#FBDC8E"/>
<path d="M73.7706 242.061H230.506" stroke="#9A8C98" stroke-width="3" stroke-miterlimit="10"/>
<path d="M151.677 240.429V83.9441H-15.2439V22.6667" stroke="#9A8C98" stroke-width="5" stroke-linecap="round" stroke-linejoin="round"/>
<path d="M149.013 326.604C152.279 326.604 154.926 323.735 154.926 320.195C154.926 316.656 152.279 313.786 149.013 313.786C145.748 313.786 143.1 316.656 143.1 320.195C143.1 323.735 145.748 326.604 149.013 326.604Z" fill="#F5CAC3"/>
<path d="M165.67 326.604C168.936 326.604 171.583 323.735 171.583 320.195C171.583 316.656 168.936 313.786 165.67 313.786C162.405 313.786 159.757 316.656 159.757 320.195C159.757 323.735 162.405 326.604 165.67 326.604Z" fill="#F5CAC3"/>
<path d="M182.331 326.604C185.597 326.604 188.244 323.735 188.244 320.195C188.244 316.656 185.597 313.786 182.331 313.786C179.066 313.786 176.419 316.656 176.419 320.195C176.419 323.735 179.066 326.604 182.331 326.604Z" fill="#F5CAC3"/>
<path d="M198.989 326.604C202.254 326.604 204.901 323.735 204.901 320.195C204.901 316.656 202.254 313.786 198.989 313.786C195.723 313.786 193.076 316.656 193.076 320.195C193.076 323.735 195.723 326.604 198.989 326.604Z" fill="#F5CAC3"/>
<path d="M215.65 326.604C218.915 326.604 221.562 323.735 221.562 320.195C221.562 316.656 218.915 313.786 215.65 313.786C212.384 313.786 209.737 316.656 209.737 320.195C209.737 323.735 212.384 326.604 215.65 326.604Z" fill="#F5CAC3"/>
<path d="M232.307 326.604C235.572 326.604 238.22 323.735 238.22 320.195C238.22 316.656 235.572 313.786 232.307 313.786C229.041 313.786 226.394 316.656 226.394 320.195C226.394 323.735 229.041 326.604 232.307 326.604Z" fill="#F5CAC3"/>
<path d="M149.013 363.887C152.279 363.887 154.926 361.017 154.926 357.477C154.926 353.938 152.279 351.068 149.013 351.068C145.748 351.068 143.1 353.938 143.1 357.477C143.1 361.017 145.748 363.887 149.013 363.887Z" fill="#F5CAC3"/>
<path d="M165.67 363.887C168.936 363.887 171.583 361.017 171.583 357.477C171.583 353.938 168.936 351.068 165.67 351.068C162.405 351.068 159.757 353.938 159.757 357.477C159.757 361.017 162.405 363.887 165.67 363.887Z" fill="#F5CAC3"/>
<path d="M182.331 363.887C185.597 363.887 188.244 361.017 188.244 357.477C188.244 353.938 185.597 351.068 182.331 351.068C179.066 351.068 176.419 353.938 176.419 357.477C176.419 361.017 179.066 363.887 182.331 363.887Z" fill="#F5CAC3"/>
<path d="M198.989 363.887C202.254 363.887 204.901 361.017 204.901 357.477C204.901 353.938 202.254 351.068 198.989 351.068C195.723 351.068 193.076 353.938 193.076 357.477C193.076 361.017 195.723 363.887 198.989 363.887Z" fill="#F5CAC3"/>
<path d="M215.65 363.887C218.915 363.887 221.562 361.017 221.562 357.477C221.562 353.938 218.915 351.068 215.65 351.068C212.384 351.068 209.737 353.938 209.737 357.477C209.737 361.017 212.384 363.887 215.65 363.887Z" fill="#F5CAC3"/>
<path d="M232.307 363.887C235.572 363.887 238.22 361.017 238.22 357.477C238.22 353.938 235.572 351.068 232.307 351.068C229.041 351.068 226.394 353.938 226.394 357.477C226.394 361.017 229.041 363.887 232.307 363.887Z" fill="#F5CAC3"/>
<path d="M157.611 345.243C160.877 345.243 163.524 342.374 163.524 338.834C163.524 335.294 160.877 332.425 157.611 332.425C154.345 332.425 151.698 335.294 151.698 338.834C151.698 342.374 154.345 345.243 157.611 345.243Z" fill="#F5CAC3"/>
<path d="M174.268 345.243C177.534 345.243 180.181 342.374 180.181 338.834C180.181 335.294 177.534 332.425 174.268 332.425C171.003 332.425 168.355 335.294 168.355 338.834C168.355 342.374 171.003 345.243 174.268 345.243Z" fill="#F5CAC3"/>
<path d="M190.929 345.243C194.195 345.243 196.842 342.374 196.842 338.834C196.842 335.294 194.195 332.425 190.929 332.425C187.664 332.425 185.016 335.294 185.016 338.834C185.016 342.374 187.664 345.243 190.929 345.243Z" fill="#F5CAC3"/>
<path d="M207.586 345.243C210.852 345.243 213.499 342.374 213.499 338.834C213.499 335.294 210.852 332.425 207.586 332.425C204.321 332.425 201.674 335.294 201.674 338.834C201.674 342.374 204.321 345.243 207.586 345.243Z" fill="#F5CAC3"/>
<path d="M224.248 345.243C227.513 345.243 230.16 342.374 230.16 338.834C230.16 335.294 227.513 332.425 224.248 332.425C220.982 332.425 218.335 335.294 218.335 338.834C218.335 342.374 220.982 345.243 224.248 345.243Z" fill="#F5CAC3"/>
<path d="M240.905 345.243C244.17 345.243 246.817 342.374 246.817 338.834C246.817 335.294 244.17 332.425 240.905 332.425C237.639 332.425 234.992 335.294 234.992 338.834C234.992 342.374 237.639 345.243 240.905 345.243Z" fill="#F5CAC3"/>
<path d="M157.611 382.525C160.877 382.525 163.524 379.656 163.524 376.116C163.524 372.577 160.877 369.707 157.611 369.707C154.345 369.707 151.698 372.577 151.698 376.116C151.698 379.656 154.345 382.525 157.611 382.525Z" fill="#F5CAC3"/>
<path d="M174.268 382.525C177.534 382.525 180.181 379.656 180.181 376.116C180.181 372.577 177.534 369.707 174.268 369.707C171.003 369.707 168.355 372.577 168.355 376.116C168.355 379.656 171.003 382.525 174.268 382.525Z" fill="#F5CAC3"/>
<path d="M190.929 382.525C194.195 382.525 196.842 379.656 196.842 376.116C196.842 372.577 194.195 369.707 190.929 369.707C187.664 369.707 185.016 372.577 185.016 376.116C185.016 379.656 187.664 382.525 190.929 382.525Z" fill="#F5CAC3"/>
<path d="M207.586 382.525C210.852 382.525 213.499 379.656 213.499 376.116C213.499 372.577 210.852 369.707 207.586 369.707C204.321 369.707 201.674 372.577 201.674 376.116C201.674 379.656 204.321 382.525 207.586 382.525Z" fill="#F5CAC3"/>
<path d="M224.248 382.525C227.513 382.525 230.16 379.656 230.16 376.116C230.16 372.577 227.513 369.707 224.248 369.707C220.982 369.707 218.335 372.577 218.335 376.116C218.335 379.656 220.982 382.525 224.248 382.525Z" fill="#F5CAC3"/>
<path d="M240.905 382.525C244.17 382.525 246.817 379.656 246.817 376.116C246.817 372.577 244.17 369.707 240.905 369.707C237.639 369.707 234.992 372.577 234.992 376.116C234.992 379.656 237.639 382.525 240.905 382.525Z" fill="#F5CAC3"/>
</g>
<defs>
<clipPath id="clip0_10_1168">
<rect width="250" height="425" fill="white"/>
</clipPath>
</defs>
</svg>
