<svg width="253" height="473" viewBox="0 0 253 473" fill="none" xmlns="http://www.w3.org/2000/svg">
<g clip-path="url(#clip0_43_90)">
<path d="M21.36 92.6901C75.47 73.6801 121.58 148 134 167.75C188.31 254.51 142.47 330.17 118.4 338.85C76.44 354 30.89 285.85 18 264.27C-3.99999 227.71 2.84 176.53 0.400005 160.93C-2.04 145.33 6.93001 97.7601 21.36 92.6901Z" fill="#F7EDE2"/>
<path d="M161.26 0.56003C195.38 -4.31997 215.15 23.91 221.26 40.04C231.15 66.36 252.46 80.5 252.46 114.13C252.46 192.61 204.69 255.49 183.24 255.49C135.96 255.49 118.41 205.77 118.41 184.81C118.41 149.23 127.82 106.32 126.7 95.61C124.34 73.61 111.16 7.71003 161.26 0.56003Z" fill="#F5CAC3"/>
<path d="M50 151.84C61.89 167.38 122.93 310.62 135.34 470.58" stroke="#F5CAC3" stroke-width="4" stroke-linecap="round" stroke-linejoin="round"/>
<path d="M89.34 146.6C88.05 151.48 77.34 180.81 68.7 190.77" stroke="#F5CAC3" stroke-width="4" stroke-linecap="round" stroke-linejoin="round"/>
<path d="M34.18 238.43C42.39 243.88 66 249.19 90 249.33" stroke="#F5CAC3" stroke-width="4" stroke-linecap="round" stroke-linejoin="round"/>
<path d="M120 272.71C117.78 275.49 111.37 283.59 101.61 287.52" stroke="#F5CAC3" stroke-width="4" stroke-linecap="round" stroke-linejoin="round"/>
<path d="M175.75 96.45C189.8 190.77 156.31 430.33 155.11 470.58" stroke="#FBDC8E" stroke-width="4" stroke-linecap="round" stroke-linejoin="round"/>
<path d="M209.74 104.4C206.04 110.08 190.94 123.56 179.47 127.75" stroke="#FBDC8E" stroke-width="4" stroke-linecap="round" stroke-linejoin="round"/>
<path d="M143.73 175.09C151.11 178.49 164.98 184.46 178.34 184.46" stroke="#FBDC8E" stroke-width="4" stroke-linecap="round" stroke-linejoin="round"/>
</g>
<defs>
<clipPath id="clip0_43_90">
<rect width="252.41" height="472.58" fill="white"/>
</clipPath>
</defs>
</svg>
